<?xml version="1.0" encoding="UTF-8"?>
<svg id="Capa_1" xmlns="http://www.w3.org/2000/svg" version="1.1" viewBox="0 0 1493.33 1237.33">
  <!-- Generator: Adobe Illustrator 30.2.1, SVG Export Plug-In . SVG Version: 2.1.1 Build 1)  -->
  <path d="M682.53,582.55c1.2,0,4,.93,6.13,2,2,1.07,5.33,2.27,7.47,2.67,2.67.53,3.6,1.47,3.6,4,0,.83-.27,2.2-.48,3.43.12,0,.24-.02.36-.02,4.27,0,5.7,4.38,4.32,7.34.51.41,1.07.84,1.67,1.24,2.67,1.73,6.93,2.53,15.2,2.8,15.2.4,44.53,6.13,51.2,9.87,3.47,2,7.33,1.6,8.27-.67.93-2.53-.53-3.2-8.13-3.87-3.2-.27-6.53-1.2-7.6-2-1.2-.93-3.33-1.33-5.07-.8-2.93.8-2.8.67.67-2.4,2-1.73,3.6-3.6,3.6-4,0-.53-2.53-.67-5.6-.4-3.47.4-6.13,0-6.67-.93-.8-1.2-1.33-1.07-2.27.27-.67.93-1.87,1.33-2.67.93-1.07-.67-.8-1.6.67-3.07,1.73-1.73,2.53-1.87,5.07-.4,2.4,1.2,3.87,1.2,6,.13,1.47-.8,4.13-1.2,6-.67,1.73.4,3.6.13,4.13-.67.53-.93,1.6-1.07,3.2-.27,1.33.8,4.4.8,7.07.27,2.67-.67,5.6-.67,6.53,0,2.4,1.47,3.87,1.47,3.87,0,0-2.4-22.27-4.67-24.93-2.53-.93.67-2.4.8-3.2.27-.93-.53-8.13-1.07-16.27-1.33-8.27-.13-15.07-.8-16-1.73-2.27-2.27-.13-3.2,2.93-1.2,2.4,1.47,3.07,1.47,4,0,.53-.93,1.87-1.47,2.93-1.2,1.07.27,1.47.27.93,0-1.73-.93-1.2-3.2.67-2.93,3.07.4,4.93-.13,4.93-1.47,0-.67-.8-.93-1.87-.53-3.2,1.2-3.73-2-.53-4,4.4-2.8,25.73-1.87,37.73,1.73,10.27,3.07,14,3.47,14,1.47,0-.8-1.47-1.33-3.2-1.33-1.87,0-3.73-.67-4.13-1.33-.4-.8-2.27-1.33-4-1.33s-4.8-.67-6.93-1.6c-5.07-2.13-7.47-2.53-18.4-2.93-8.93-.4-12.93-2.4-7.47-3.87,1.47-.4,2.8-.13,3.07.53.27.67,2.13.27,4.27-.8,2.67-1.47,5.73-1.87,9.47-1.2l9.47,1.2c6.93.93,17.87,3.2,19.2,4,.8.53,2.8,1.07,4.53,1.47,1.73.27,4.93,1.33,7.2,2.27,5.87,2.4,3.6,5.47-4.27,5.6-3.87,0-6.13.53-6.13,1.6,0,1.6,12.93,6.27,17.47,6.4,1.2,0,3.33.93,4.67,2.13,2.53,2.13,12.53,4.13,12.53,2.53,0-1.07-6.67-4.4-9.07-4.53-.93-.13-2.27-1.07-2.93-2.13-.67-1.07-1.6-1.87-2-1.73-2,1.07-4.67.13-4.67-1.47,0-2.27,4.4-4.13,5.07-2.27.8,2.4,4.4,1.6,4-.8-.27-1.73.53-2.4,3.6-2.53,2.27,0,7.6-.27,12-.4,4.4-.27,8.67-.27,9.33-.13.8,0,8.53.13,17.33,0,37.73-.13,46.13.67,40.8,3.87-1.33.8-1.07,1.33.8,2,1.33.53,2.53.8,2.67.53.13-.27,1.07.67,2,1.87,4.13,5.6,25.07,13.2,25.07,9.2,0-1.33-2.4-3.2-4.27-3.6-.67-.13-1.47-.4-2-.53-.67-.13-2.67-.13-4.67,0-2.67.13-3.73-.4-3.73-2,0-1.2-.53-1.73-1.33-1.33-.67.4-2.67-.4-4.27-1.87l-2.93-2.8h3.07c1.87,0,3.33-.93,3.73-2.67.93-3.47,1.87-3.33,4.8.67,1.33,1.87,1.73,3.47.93,4-2.27,1.47-1.47,3.6.8,2.27,3.07-1.73,3.47-9.33.67-10.8-1.2-.67-2.93-.8-3.73-.53-.93.4-1.73,0-1.73-.8s1.07-1.6,2.4-1.6c1.2-.13,3.47-.4,4.93-.67,1.47-.27,4.8-.93,7.33-1.33,2.53-.53,5.33-1.33,6-1.87,1.6-1.2,18-3.6,24.27-3.6,3.07,0,4.53.67,5.2,2.53.53,2,1.2,2.27,2.27,1.2,1.2-1.2,1.07-1.87-.4-2.8-2.27-1.47-2-1.47,4.8-1.73,2.67,0,5.2.53,5.6,1.33.53.8,3.2,2.4,6,3.47,2.67,1.2,4.93,2.93,4.93,3.87s1.2,2.53,2.67,3.47c2.27,1.33,2.8,1.33,3.47-.4.4-1.07,1.2-1.73,1.73-1.47.53.4,1.73.13,2.8-.53s2.93-.27,4.8.93c1.73,1.07,3.73,1.6,4.53,1.07.67-.4,1.33-.13,1.33.53,0,.8-.8,1.47-1.6,1.47-1.2,0-1.2.4-.27,1.07,2.27,1.47,3.2,5.33,1.47,6.13-.93.27-.53.67.8.67,1.2.13,2.27-.8,2.27-1.87,0-1.2.8-1.6,2-1.2,1.33.53,2,0,2-2,0-1.6-.67-2.8-1.6-2.8-.8,0-1.07-.4-.67-.93,1.47-1.33-5.87-4.53-15.6-6.53-15.47-3.33-21.47-7.73-19.6-14.53.93-3.87,1.2-4,9.6-4,4.67,0,9.2.67,9.87,1.47,1.87,2.13,8.67,3.6,8.67,1.87,0-.67-.53-1.47-1.33-1.47-.67-.13-1.87-.27-2.53-.4-2.53-.27-2.8-1.87-.67-3.6,1.87-1.47,2.4-1.47,3.87.53,2.4,3.33,5.07,2.93,4-.53-.67-2-.4-2.67.8-2.27,2.53.8,6-2.67,4.27-4.4-.8-.8-2.67-.8-5.2.27-5.33,2.13-8.67,2.67-21.87,3.33-10.27.67-12.53.27-23.33-3.47-6.34-2.22-12.74-4.27-19.2-6.13-3.87-1.07-8.93-3.47-11.07-5.2-2.13-1.87-4.67-3.33-5.73-3.33-.93,0-2.4-.93-3.33-2-2.27-2.67,1.33-6.8,6.8-8,4.13-.93,9.87-3.33,16.53-6.93,41.73-22.67,40.53-22.27,82-22.4,17.2,0,33.87.4,37.07,1.07,3.47.53,5.47.53,5.07-.27-.93-1.33-14.13-3.87-24.8-4.8-4-.27-7.33-.67-7.33-.8s-3.2-.27-7.07-.4c-3.87-.13-7.6-.93-8.13-1.87-.67-1.2-2.13-1.2-5.6-.13-7.2,2.13-14.53,2.53-17.6,1.07-2.13-1.2-2.93-1.07-3.87.67-1.07,1.87-1.47,1.87-3.07.4-.93-1.07-2-3.33-2.27-5.07-.53-4-5.47-4.53-6.13-.67-.4,1.73,0,2.27,1.33,1.73,1.07-.4,2.67.53,3.6,2,2.13,3.47.67,4.93-1.73,1.73q-1.73-2.4-3.2.13c-1.2,2.13-1.73,2.27-3.2.8s-1.33-1.87.27-2.93c1.6-.93,1.6-1.6.27-2.93-1.2-1.2-1.6-1.07-1.6.8,0,1.6-.67,2.13-2,1.6-1.6-.53-1.87,0-1.2,2.4.67,2.8.4,3.07-2.67,2.53-1.87-.4-4.27,0-5.33.8-1.33,1.2-2.13,1.07-3.47-.53-2.13-2.53-4-2.53-4,0,0,1.07-.53,2-1.33,2-.67,0-.93-.93-.53-2,.53-1.33,0-2-1.47-2s-2,.67-1.47,2c.4,1.2,0,2-1.2,2-1.07,0-2,.93-2,2.13,0,1.73-.4,1.87-1.87.67-1.33-1.2-2.13-1.2-2.8-.13-.53.8-1.87,1.2-2.93.8s-3.2.8-5.07,2.93c-2.53,2.93-3.47,3.33-4.93,1.87-1.33-1.33-1.2-1.87,1.33-2.4,1.6-.53,2.93-1.33,2.93-2,0-1.6-.67-1.47-5.73.53-2.4,1.07-4.67,1.73-5.2,1.73-.4-.13-1.33.27-1.87.8-.93.93,2.27,1.6,5.47,1.2.8-.13-.13,1.07-1.73,2.53-3.07,2.53-6,2.93-9.07,1.07-.93-.67-1.47.4-1.33,2.93.13,2.27.67,4,1.33,4,.53,0,4.8-1.73,9.33-3.87,4.4-2.13,10.27-4.13,12.8-4.53,2.53-.53,8.93-1.87,14-3.07,15.73-3.6,16.13-3.6,14.67-2.13-2.53,2.67-34.8,15.2-47.33,18.4-10.27,2.53-11.6,2.4-8.93-.53,2.93-3.2,2.8-4.13-.27-3.87-1.47,0-2.4.53-2,1.07,1.07,1.87-8.93,6.8-14.13,7.07-2.93.13-5.33-.13-5.33-.8,0-.53-1.33-.53-2.93,0-4.67,1.6-24.13.53-25.73-1.33-1.73-2.13-6-2.53-5.6-.53.13.8-.4,1.33-1.07,1.2-1.87-.27-38-2.13-40.67-2.13-1.07,0-6.93.53-12.8,1.07-7.73.67-11.07.53-11.87-.53-.67-1.2-1.33-1.2-2.8,0-.93.8-5.6,1.73-10.13,2-4.67.4-10.67,1.2-13.33,2-2.67.67-5.33,1.2-6,1.07-1.87-.53-11.6,1.6-14.13,2.93-1.33.67-2.8.93-3.47.67-.53-.4-3.33,0-6.27.8-2.8.67-6.4,1.6-7.87,1.73-1.47.27-6.8,1.47-11.87,2.53-5.07,1.2-9.73,1.73-10.4,1.2-.8-.4-1.87.13-2.53,1.07-.53.93-1.47,1.33-2,.8-2-2,3.47-5.47,9.07-5.73,3.07-.13,5.87-.93,6.13-1.87.4-1.07-.27-1.33-2.13-.8-3.6,1.2-4.8-1.07-2.13-3.73,1.07-1.2,1.6-2.8,1.07-3.6-.67-1.07-1.33-.93-2.13.67-1.2,2.27-5.07,2.93-5.07,1.07,0-.67-1.07-2.53-2.53-4-2.53-3.07-5.47-3.87-5.47-1.73,0,1.47-5.2,3.47-7.6,3.07-.93-.27-1.73.8-1.73,2.4,0,1.47-.93,3.07-2,3.47-1.07.53-2,1.6-2,2.67s-.67,1.87-1.47,1.87-2.53,1.33-4,2.93c-2.13,2.53-2.67,2.8-3.73,1.07-1.6-2.4.4-5.07,4.27-5.6,2.27-.27,2.93-1.2,2.67-4.13-.27-3.2.53-4.13,4.27-5.73,2.4-.93,4.8-2.4,5.33-3.2.4-.67,2.4-1.33,4.27-1.33,2,0,4.67-1.07,6.13-2.4,1.87-1.6,2.8-1.87,3.2-.67.4,1.2,1.33.93,3.2-.8,1.6-1.47,4.4-2.4,6.67-2.27,2.67.27,3.87-.4,3.87-1.73,0-1.07.4-1.47.93-1.07.4.53,1.6.27,2.67-.53,1.2-1.07,1.73-1.07,1.73,0,0,2,6.67-.67,8.67-3.47,1.07-1.47,1.87-1.73,2.53-.67.67,1.2,2,1.07,4.8-.4,2.13-1.07,6-2,8.53-2,2.67,0,5.07-.8,5.73-1.87.53-1.07,3.47-2.27,6.4-2.53,5.2-.67,10.13-1.87,14-3.2,1.07-.4,3.47-.93,5.33-1.2,8.13-1.07,12.13-2.13,22.8-6.67,6.13-2.67,13.47-5.33,16.27-5.87,2.8-.53,5.87-1.73,6.67-2.53.8-.8,2.8-1.47,4.53-1.47s3.07-.53,3.07-1.2c0-1.07,15.2-6.93,20-7.73,1.07-.13,5.6-1.2,10-2.4,4.4-1.07,13.73-2.4,20.67-2.8,6.93-.4,14.4-1.6,16.53-2.67,2.13-1.07,4.93-1.87,6.27-1.87,3.33,0,14.67-2.67,17.47-4.13,1.33-.67,3.47-1.2,4.93-1.2,1.33,0,4-1.2,5.87-2.67s4-2.67,4.67-2.67c1.47,0,5.73-4,15.07-14,10.8-11.6,29.47-28,33.07-29.07,5.6-1.6,11.6-.13,20,5.07,9.47,5.87,12.67,9.2,11.73,11.87-1.33,3.33-14.93,8.93-35.73,14.67-9.07,2.67-9.2,2.67-9.2.13,0-1.07-.67-2-1.47-2s-1.07.93-.67,2c.4,1.2,0,2.27-.93,2.53-10.4,2.67-25.6,9.2-27.07,11.6-1.07,1.87.27,1.47,12.27-3.47,11.73-4.8,20.13-7.2,29.2-8.13,2.93-.4,7.33-.8,9.6-1.07,2.4-.27,8.27-2.4,12.93-4.67,15.73-7.6,15.2-7.6,16.27-.67,1.07,7.33-.13,13.47-3.07,16.8-1.73,2-1.87,2.8-.67,3.6,1.33.8,1.33,2.53.13,8.27-2.13,10.13-4.67,14.53-8.27,14.53s-12.53,7.33-10.4,8.67c1.6.93,5.2-1.2,7.2-4.27.53-.93,1.87-1.33,2.8-.93.93.4,6.13-2.67,11.6-6.67,5.47-4.13,10.93-7.47,12.13-7.47s2.67-.67,3.07-1.33c1.07-1.73-3.33-3.47-4.53-1.73-1.2,1.87-5.87,3.47-4.67,1.6.53-.8,4.8-3.33,9.47-5.47,4.67-2.13,8.13-4.4,7.73-5.2-.53-.8.4-.93,2.53-.4,3.87.93,8-1.47,6.53-3.87-.53-.8-1.47-.4-2.67,1.07-1.6,2.4-1.73,2.4-1.73-.4,0-1.6.53-2.93,1.2-2.93,1.73,0,2.67-8.27,1.2-11.07-1.6-3.2-4-1.47-2.93,2.13.67,2.4.53,2.67-.93,1.2-2.67-2.53-4.4-2-13.47,3.73-4.53,2.8-8.4,5.07-8.53,4.93-.27-.13.13-5.73.67-12.27,1.07-11.6,1.2-12,6.27-16.27,7.87-6.67,8.67-7.47,15.6-14.93,3.47-3.87,6.27-7.47,6.27-8.13,0-.8.67-1.33,1.33-1.33.8,0,1.87-1.07,2.27-2.4.53-1.2,2.27-3.73,4-5.6,1.73-1.87,3.07-3.73,3.07-4.27,0-2.53-2.93-.53-7.6,5.2-2.67,3.6-10.13,11.6-16.53,18-13.47,13.73-15.33,14.13-24.53,6.53-3.33-2.8-8.53-5.87-11.47-6.8-7.87-2.67-8.93-4.53-5.73-10.4,2.67-5.33,16.4-19.73,25.2-26.53,2.93-2.27,4.8-4.67,4.27-5.33-.67-.53-1.87-.13-2.67,1.07-.93,1.2-3.2,2.93-5.2,4-7.87,4.13-17.07,11.07-17.73,13.47-.93,2.53-3.33,3.33-3.33,1.07,0-.8-.67-1.33-1.6-1.33-.8,0-1.2.4-.67.8,1.2,1.2-2.8,8.53-4.8,8.53-.8,0-2.67,1.6-4.13,3.73-1.33,2-5.33,5.73-8.93,8.27-3.6,2.53-6.53,5.07-6.53,5.6,0,1.87-5.73,7.73-7.6,7.73-.93,0-1.73.67-1.73,1.47,0,3.6-29.2,27.87-33.47,27.87-1.33,0-2.67.53-3.07,1.2-1.47,2.4-19.07,6.67-32.8,8-12.93,1.33-20.13,2.53-34,5.47l-5.33,1.2,4-2.93c2.13-1.6,5.07-4,6.27-5.33,1.33-1.2,2.93-2.27,3.73-2.27.67,0,3.47-2.4,6.13-5.33,2.8-2.93,5.6-5.33,6.27-5.33,1.2,0,2.67-1.2,12.67-10.8,2-1.87,4.67-3.73,6-4.27,1.2-.4,2.27-1.73,2.27-2.8,0-1.2,1.47-3.07,3.33-4.27s3.33-2.8,3.33-3.47c0-.8,6-9.33,13.33-19.07,7.33-9.87,13.33-18.27,13.33-18.93,0-.53,1.6-2.93,3.47-5.07,1.87-2.27,4.27-5.6,5.33-7.6,1.87-3.73,5.07-4.93,18.53-7.73,4.4-.8,8.93-2.13,10-2.8s2.93-1.6,4-2,4.27-1.87,7.07-3.33c4.13-2.27,4.93-2.27,4.93-.53,0,1.07.67,2,1.47,2s1.2-.8.8-1.87c-.53-1.33,0-1.87,1.87-1.73,2.8.13,3.33,3.6.93,6-1.2,1.2-1.07,1.6.67,1.6,1.2,0,2.27-.67,2.27-1.47s1.33-1.2,2.93-.93c3.47.53,8.13,8.27,8,13.2,0,2.93.4,3.47,2.53,2.93,3.07-.8,3.07-1.33.4-4-1.07-1.2-1.73-2.93-1.33-4,.4-1.07-.13-3.6-1.2-5.73-2.27-4.4-1.47-4.93,7.33-4.53,7.6.4,7.87.53,4.67,1.87-2.13.93-1.47,1.2,2.93,1.2,13.07.27,6.27-6.53-7.33-7.33-8.4-.53-24.93-4.13-20-4.4,1.33-.13,3.07-1.33,4-2.8s2.27-2.67,2.8-2.67c.67,0,4.53-2.4,8.67-5.2,14.8-10.13,39.87-22.8,45.2-22.8.93,0,1.73-.53,1.73-1.2,0-2.53-2.67-2.8-6.93-1.07-2.53,1.07-8,2.27-12.4,2.93-4.27.53-9.33,1.47-11.07,2.13-3.33,1.33-12.8,2.8-35.6,5.87-7.33.93-14.4,2.13-15.73,2.67s1.07-2.27,5.33-6.27c8.67-8.13,18.27-15.73,19.87-15.73.53,0,2.13-.93,3.47-2.27,2.93-2.67,7.2-5.07,12.13-7.2,2-.8,3.6-2,3.6-2.67s.8-1.2,1.73-1.2,4.13-1.07,7.07-2.53c18.93-9.07,37.73-16.27,41.73-16,1.47,0,1.6.27.53.8-.93.27-1.73,1.47-1.73,2.53s-1.47,1.87-3.6,2c-2.27.13-2.8.4-1.33.8,2.67.67,2.8,1.33.67,3.6-2.8,2.67-16.93,12.8-17.87,12.8-.53,0-2.93,1.47-5.33,3.33-2.4,1.87-4.8,3.33-5.33,3.33-.4,0-2.93,1.33-5.47,2.8-5.2,3.33-4.27,6.53,1.07,3.73,6.4-3.2,7.33-3.73,14.4-7.33,3.87-1.87,8.93-5.2,11.33-7.07,2.27-2,5.33-4.53,6.93-5.6,1.6-1.07,5.6-4.4,9.07-7.47,3.6-3.33,7.07-5.33,8.13-4.8,1.2.4,2-.13,2-1.33,0-1.07,2-2.67,4.4-3.73,2.27-.93,4.53-2.13,4.93-2.53,1.2-1.6,9.73-5.33,12-5.33,1.33,0,3.07-.93,4-2,2.4-2.8,4.27-2.53,3.33.67-.53,1.87-.27,2.67,1.07,2.67,1.2,0,2.27.4,2.67.93.67,1.33-.13-1.33-1.2-4.67-.8-1.87-.53-2,.93-.67,2.4,2.4,6.53,2.13,6.53-.27,0-1.07.93-2,2-2s2,.67,2,1.33c0,2-3.07,7.2-4.93,8.4-.93.53-1.73,1.73-1.73,2.67s-1.87,3.73-4.13,6.27c-2.27,2.53-4.53,5.2-4.93,6-1.6,2.53-8.53,7.33-9.6,6.67-1.33-.8-2.93,3.2-1.87,4.8.93,1.6,8.4-2.67,10.13-5.87,1.87-3.6,12.13-7.73,20.13-8,2,0,3.6-.8,3.6-1.73,0-1.87-3.6-3.6-4.27-2-.4,1.07-9.07,3.2-9.07,2.13,0-.27,2.4-3.07,5.33-6.27,3.73-4.13,5.33-5.07,5.33-3.47,0,1.33.67,2.4,1.47,2.4.93,0,1.2-1.33.67-3.73-.8-3.33-.53-3.2,1.87,1.07,1.87,3.2,2.53,3.73,1.87,1.47-.53-2-.13-3.6.93-4.4,1.47-.93,1.47-1.47.27-2-3.2-1.2-1.87-4,1.47-3.47,1.87.4,3.07,1.33,2.8,2.27-.8,2,3.07,6.93,4.27,5.47.67-.53.27-1.33-.53-1.6-.93-.4-1.73-1.6-1.73-2.67,0-1.47.93-1.87,3.2-1.2,2,.53,3.73.13,4.27-.8.67-1.07.27-1.2-1.2-.67-1.33.4-2.4.27-2.4-.4-.13-.8-.27-2.13-.4-2.93,0-.93-1.07-1.73-2.13-1.87-4.4-.27-5.33-.53-5.33-1.6,0-.53,2.4-.8,5.33-.53,4.67.53,5.33.93,4.53,3.2-.53,2-.27,2.53.93,2.13,1.2-.4,1.73-2.27,1.47-4.8-.27-2.13.13-4.4.8-4.8.8-.4,1.2,0,1.07.93,0,.8.53,1.6,1.2,1.6.8,0,1.2-.8,1.2-1.73-.13-.8.53-1.6,1.6-1.6s1.87.93,1.87,2,.67,2,1.33,2c.8,0,1.33-.8,1.33-1.87s1.33-2.13,3.07-2.4c1.87-.27,2.8-1.2,2.53-2.53-.27-1.6.67-2.27,3.07-2.27,1.87,0,3.33.8,3.2,1.6-.4,3.33.27,6.13,1.33,6.13.67,0,1.2-.8,1.07-1.73,0-.8.13-3.07.13-4.8.27-2.67.53-2.93,2.27-1.47,1.73,1.47,2.4,1.33,4.13-.8,1.2-1.33,1.6-1.73,1.07-.67-.67,1.47-.4,1.73,1.2,1.07,1.33-.4,2.27-.27,2.27.4,0,.8.67,1.33,1.47,1.33.67,0,1.07-.53.67-1.2-.4-.67.13-1.47,1.2-1.87,1.2-.53,1.6-.13,1.07,1.2-.4,1.07.13,1.87,1.47,1.87,1.2,0,2.13-.67,2.13-1.6,0-.8.4-1.07.93-.67.4.53,1.6.27,2.67-.53,1.2-1.2,1.73-1.07,1.73,0,0,.93,1.2,1.2,3.33.67,2.8-.67,3.2-.4,2.4,1.6-.67,1.6-.4,2,.8,1.2,1.07-.53,2.27-.27,2.93.8.93,1.47,1.2,1.47,1.2-.4,0-1.47.8-2,2.67-1.47,1.73.4,2.67,1.87,2.67,3.87,0,1.73.67,3.2,1.47,3.2s1.2-.8.8-1.87c-.67-1.87,1.33-4.8,3.33-4.8.53,0,1.07,1.07,1.07,2.27,0,1.73.4,1.87,1.6.67,2.27-2.27,5.07-2,5.07.4,0,1.6.67,1.73,2.4.93,2.67-1.47,5.47-.67,8.27,2.27,2.13,2.27,4.4,2.8,6,1.2.53-.53-2.8-2.67-7.47-4.8-8-3.73-10.8-4.53-27.2-8.27-9.87-2.27-39.33-2.53-55.33-.67h0c-22,2.67-33.47,6.13-69.33,21.07-56.93,23.6-72.93,30.93-74.4,34.53-.27.53-1.2,1.07-2,1.07-2,0-15.33,8-26.53,15.87-10.53,7.47-34.8,26.8-36,28.93-.67.93-5.2,4.67-10.4,8.53-5.07,3.87-9.33,7.47-9.33,8.13s-.93,1.2-2,1.2-3.07,1.2-4.4,2.8c-1.2,1.47-3.47,3.33-4.93,4-1.47.67-5.33,3.33-8.67,5.87s-7.2,5.2-8.67,5.87c-1.73.78-3.28,1.91-4.53,3.33-.93,1.2-2.4,2.13-3.07,2.13-.8,0-4.4,2.27-8.13,4.93-9.6,7.07-21.47,14.67-24.4,15.6-1.47.4-5.33,3.33-8.67,6.53-3.33,3.07-8.8,7.07-12,8.8-3.2,1.73-6.8,4-8,4.93-1.07,1.07-2.67,1.87-3.33,1.87-1.6,0-26.27,14.93-27.87,16.93-.67.93-3.47,2-6,2.4-2.53.4-5.87,1.87-7.33,3.2-1.47,1.2-4.27,2.93-6.27,3.87-2.13.8-3.73,2.13-3.73,2.93s-1.33,2-2.93,2.67c-1.73.8-4,1.87-5.07,2.53-3.6,2.27-14.13,6.8-15.73,6.8-.8,0-2.13,1.2-2.93,2.67s-2.27,2.67-3.33,2.67-3.2,1.07-4.67,2.27c-2.4,2-8.13,5.6-19.33,11.87-6.8,3.87-28.8,21.33-38.67,30.53-5.07,4.93-13.47,11.87-18.67,15.47-12.4,8.67-14,9.87-14,11.6,0,.8-3.07,3.6-6.8,6.27-6.27,4.67-6.93,4.93-10.27,3.2-2-.93-4-2-4.53-2.27-2.27-1.07-.8,2.53,2.27,5.87,2.67,2.8,3.07,4,1.73,5.47-1.07,1.33-1.07,2.53.27,5.07.93,1.73,1.33,4.67.8,6.4-.67,2.67-1.47,3.2-3.6,2.67-2-.53-2.67-.27-2.27.93.53,1.87-5.33,7.73-10.67,10.53-4.13,2.13-2.67,3.47,4.13,3.73,11.33.4,20.53,1.73,30.8,4.4,5.87,1.47,11.6,2.67,12.93,2.67ZM755.07,603.89c.4-.8,1.07-1.33,1.33-1.33s.93.53,1.33,1.33c.4.67-.13,1.33-1.33,1.33s-1.73-.67-1.33-1.33ZM738.8,598.55c3.87-1.47,3.6-1.47,3.6-.4h0c0,.67-1.47,1.73-3.33,2.67-1.87.8-3.33.93-3.33.27s1.33-1.87,3.07-2.53ZM996.4,577.22c.4-.8,1.47-1.33,2.13-1.33.8,0,.93.53.53,1.33-.4.67-1.47,1.33-2.13,1.33-.8,0-.93-.67-.53-1.33ZM698.4,573.22c-1.47,0-2.67-.53-2.67-1.07s1.2-1.07,2.67-1.07,2.67.53,2.67,1.07-1.2,1.07-2.67,1.07ZM715.73,573.22c-1.47,0-2.67-.53-2.67-1.07s1.2-1.07,2.67-1.07,2.67.53,2.67,1.07-1.2,1.07-2.67,1.07ZM726.4,586.55c-.67,0-1.33-.67-1.33-1.33,0-.8.67-1.33,1.33-1.33.8,0,1.33.53,1.33,1.33,0,.67-.53,1.33-1.33,1.33ZM737.73,584.69c-1.73,2.13-2.13,2.27-3.33.53-1.2-1.6-1.33-1.33-.67.93.93,3.6-1.33,4.13-2.67.8-.53-1.6.13-3.2,2-4.67,3.07-2.53,6.67-3.2,6.67-1.33,0,.67-.93,2.27-2,3.73ZM736.8,576.42c-1.07-.67-.67-1.33,1.07-2,2.93-1.2,5.87-1.47,5.87-.53,0,1.33-5.47,3.33-6.93,2.53ZM744.93,567.09c-2.4.4-4.93.27-5.73-.53-1.73-1.73-6.13-1.73-6.13,0,0,.67,1.33,1.33,3.07,1.33,2.27,0,2.53.27.93,1.2-1.07.8-2.4,1.07-2.93.67-.53-.4-2.67.13-4.67,1.2-3.87,1.87-8.4,1.6-8.4-.53,0-.67-1.33-1.2-3.07-1.2-1.6,0-3.73-1.2-4.67-2.8-1.47-2.4-1.47-3.07.67-4.67,1.33-.93,2.8-1.87,3.47-1.87.53,0,.93-.53.93-1.2s-1.2-.93-2.67-.53c-1.47.4-2.67,0-2.67-.8s-.53-1.47-1.33-1.47c-.67,0-.93.93-.53,2,.53,1.07.13,2-.67,2s-1.47-1.2-1.47-2.67c0-2.53.53-2.67,5.07-1.87,2.67.53,5.6,1.2,6.27,1.73h0c.8.4,2.13.8,3.2,1.07,3.33.4,4.67,2.8,2.8,5.07-1.6,2-1.87,2-2.93.13-1.2-2.13-5.07-2.93-5.07-1.2.13,2.53,3.6,5.07,7.07,5.2,3.2.27,3.6-.27,3.6-3.73s.4-3.87,2.4-3.07c1.2.4,5.2,1.47,8.93,2.13,8.27,1.6,10.13,3.2,4.53,4.4ZM914.53,581.22c-.8,0-1.47-.67-1.47-1.33,0-.8.27-1.33.53-1.33.4,0,1.07.53,1.47,1.33.4.67.13,1.33-.53,1.33ZM918.4,581.22c-.67,0-1.33-.67-1.33-1.33,0-.8.67-1.33,1.33-1.33.8,0,1.33.53,1.33,1.33,0,.67-.53,1.33-1.33,1.33ZM911.46,526.69c1.73-.13,4.4.53,6,1.33h0c5.73,3.07,12.53,10,11.07,11.33-2.8,2.67-5.87,2.93-8.67.93-2.13-1.47-3.33-1.6-4.67-.53-1.87,1.6-6.13.67-6.13-1.33,0-.67-.93-1.2-2.13-1.2-1.47,0-1.87.67-1.33,2.13.4,1.2.8,2.53.8,3.07s1.07.93,2.4,1.07c1.2,0,7.47.53,13.73.93,10,.8,11.73.53,12.4-1.33.53-1.6,1.33-1.73,2.53-.8.8.8,4,1.73,6.93,2.27,5.47.93,27.6,8,31.73,10.13,3.73,2.13,2.93,7.33-1.6,8.93-2.13.8-4.13,1.07-4.53.8-.27-.27-2.27.27-4.27,1.33s-4.4,1.6-5.33,1.33c-.93-.4-4.13,0-7.2.8s-8,1.73-11.2,2c-3.07.4-7.07,1.2-8.93,1.87-4.13,1.47-27.87,4.53-30.67,3.87-1.2-.27-1.87.53-1.87,1.87.27,3.2-.93,3.07-4.67-.4-2.27-2.13-3.33-2.4-4-1.33s-6.53,1.73-17.33,2c-15.2.4-16.13.27-15.33-2.13.53-1.73,0-2.4-1.73-2.4-4.13,0-8.4,1.6-7.6,2.8.4.67-.13,1.2-1.33,1.2-1.07,0-2.13-.53-2.4-1.33-.27-.8-2.4-.8-5.73,0-4.93,1.2-15.47.8-23.2-.8-2.53-.53-2.93-.93-1.47-1.87,3.07-1.87.53-3.07-2.67-1.33-2.27,1.2-4.93,1.2-11.2,0-12.13-2.27-18.53-4.13-17.6-4.93,1.07-1.07,28.27-8.27,34.8-9.07,2.93-.53,6.53-1.33,8-1.87,1.47-.67,10.13-2.8,19.2-4.8,9.2-2,17.6-4.13,18.67-4.8,4.67-2.4,20.13-6.67,21.47-5.87.8.53,2.27,0,3.07-1.2,2.4-3.2,18.53-12.53,22-12.67ZM733.87,535.75c.8-1.47,1.07-1.47,1.6,0,.27.93.13,2-.27,2.4-1.33,1.33-2.53-.67-1.33-2.4ZM722.8,538.02c2.4-.93,5.33-.27,5.87,1.33h0c.8,2.4-3.6,3.33-5.73,1.33-1.47-1.47-1.47-2.13-.13-2.67ZM723.73,544.82c0,.67,1.6,1.2,3.73,1.07,2.8,0,3.47-.67,3.2-2.53-.4-2.13.13-2.4,3.6-1.73,4.13.8,6.8-.8,4-2.53-1.07-.53-.93-1.2.27-2,1.47-.93,1.47-1.2.13-1.2-.93,0-1.33-.67-.93-1.33,1.33-2.13,4.67-1.6,4.67.8,0,1.2.93,1.87,2.27,1.6,1.33-.27,2.4-1.6,2.4-2.93,0-1.47.8-2.8,1.73-3.07.93-.4,1.47.4,1.33,1.87-.4,2.53.27,3.07,3.6,3.07,2.53,0,2.67-3.87,0-4.8-2.4-.93-1.33-3.2,1.47-3.2,1.07,0,1.87.93,1.87,2s.67,2,1.47,2,1.07,1.07.67,2.4c-.8,2.4,4,6.53,5.6,4.93.53-.4.13-1.2-.67-1.73-3.2-2-1.87-9.6,1.73-9.6,2.27,0,2.4,2.27.27,3.07-.93.4-.4.8,1.33.8,1.6.13,2.93-.67,2.93-1.73,0-3.07,3.87-3.6,6.67-.8,3.47,3.47,4.67,3.33,7.6-.53,2.67-3.33,7.87-4.8,10.8-3.07.93.67,1.33,1.73.93,2.4-.53.67-.13,1.2.67,1.2.93,0,1.33-.93.8-2-.4-1.07-.27-2.13.27-2.27,3.07-.67,8.67-1.2,17.33-1.73,8-.53,9.6-.4,9.6,1.33,0,1.07.93,2,2.13,2,1.73,0,1.87-.4.67-1.87-1.33-1.6-.93-2,2.13-2.4,4.13-.53,15.6-.13,23.87.93h0c6.4.93,28.27,2.4,43.87,3.07l6.67.27-7.33,4.13c-4,2.27-8.93,4.13-10.93,4.13s-4.27.93-4.93,2c-.67,1.2-2.27,2.27-3.6,2.4-1.47.13-4.93,1.47-7.87,2.93-5.47,2.93-18.67,6.27-33.2,8.53-4.4.67-8.27,1.73-8.8,2.4-.4.67-2.8,1.07-5.33.93-2.53-.27-5.6.13-6.67.67s-4.4,1.47-7.33,2c-5.87,1.07-7.2,1.33-7.6,1.87-1.47,1.07-7.73,1.2-7.73,0,0-2.53-3.73-1.33-4.4,1.33-.53,2.27-1.47,2.53-4.13,1.87-2-.4-4.27-.27-5.2.53-2,1.73-16.4,2.4-16,.8.13-.67-2.27-1.33-5.33-1.47-12.27-.27-26-4.27-24.27-7.2.53-.8,2.4-1.07,4.13-.67,1.87.53,3.2.27,3.2-.53,0-.67-1.33-1.33-2.93-1.47-1.73,0-4.67-.4-6.67-.67-2.13-.4-3.73,0-3.73.8,0,.67.93,1.33,2,1.33s2,.53,2,1.33c0,1.47-.8,1.6-4.93.53-1.73-.53-2.67-1.47-2.27-2.13.4-.67-.27-2.13-1.6-3.07-2.27-1.6-2.8-1.47-4.8,1.07s-2.53,2.67-3.73.93c-1.6-2.4-1.6-2.93-.27-4.8,1.2-1.87,9.6-3.87,9.6-2.27ZM715.07,541.22c-.53.8-1.47,1.07-2.13.67-.67-.53-1.2.13-1.2,1.2,0,1.2-.53,2.13-1.33,2.13-1.87,0-1.73-1.73.27-3.73s5.6-2.13,4.4-.27ZM698.8,525.35c3.87.53,5.07-.27,4.4-2.53-.53-1.6.13-2.8,2.27-3.73,3.6-1.6,7.6-.8,7.6,1.6h0c0,1.07,1.2,1.87,2.67,1.87s2.67.8,2.67,1.87c0,2.27-3.2,3.73-6,2.67-3.2-1.33-4.8.67-3.2,3.6,1.6,3.2.27,5.33-1.47,2.53-1.07-1.6-1.33-1.47-1.33.67q-.13,2.53-1.47.27c-.8-1.2-1.87-2-2.67-1.6-.67.53-1.2.13-1.2-.53,0-.8.93-1.47,2-1.47s2-.93,2-2c0-2.4-1.6-2.53-3.6-.53-1.6,1.6-4.4.53-4.4-1.6,0-.67.8-1.2,1.73-1.07ZM698,552.82c-.4-1.2.67-1.6,4-1.2,2.53.4,4.4.67,4.13.93h0c-1.87,1.47-7.6,1.73-8.13.27ZM703.73,561.22c0,.67-.67,1.33-1.47,1.33-.67,0-.93-.67-.53-1.33.4-.8,1.07-1.33,1.47-1.33.27,0,.53.53.53,1.33ZM699.73,558.55c0,.67-.53,1.33-1.33,1.33-.67,0-1.33-.67-1.33-1.33,0-.8.67-1.33,1.33-1.33.8,0,1.33.53,1.33,1.33ZM703.73,546.55c-1.73-1.2-1.73-1.47,0-2.67l2.13-1.33c.13,0,.53,1.2.93,2.67.8,2.93,0,3.33-3.07,1.33ZM696.4,534.55c.4-.8,1.07-1.33,1.47-1.33.27,0,.53.53.53,1.33,0,.67-.67,1.33-1.47,1.33-.67,0-.93-.67-.53-1.33ZM701.33,563.35c1.2.4,2.53,0,3.07-.8,1.07-1.73,4.27-1.73,5.33,0,.4.67,0,1.33-.93,1.33-1.07,0-2,1.47-2.13,3.33-.13,2.4.27,3.07,1.73,2.53,1.07-.53,2-.13,2,.67,0,1.87-6.27,1.87-7.47,0-.4-.8,0-2,.93-2.67,1.47-.8,1.33-1.2-.67-2-1.33-.53-2.8-.27-3.33.53-.53.8-2.27,1.2-4,.67l-3.07-.8,3.07-1.73c1.73-.93,4.13-1.47,5.47-1.07ZM694.4,553.22c.8,0,1.33.27,1.33.53,0,.4-.53,1.07-1.33,1.47-.67.4-1.33.13-1.33-.53,0-.8.67-1.47,1.33-1.47ZM693.73,558.55c1.07,0,2,.53,2,1.33,0,.67-.93,1.33-2,1.33s-2-.67-2-1.33c0-.8.93-1.33,2-1.33ZM691.07,570.82c1.87,0,2.93.53,2.53,1.2-.4.67-1.47,1.2-2.53,1.2s-2.13-.53-2.53-1.2c-.4-.67.67-1.2,2.53-1.2ZM686.13,559.49c.53-2,.93-1.87,2.4,1.2,1.07,2,1.6,3.87,1.33,4.13-1.33,1.33-4.4-2.93-3.73-5.33ZM1061.86,435.49c.93.4,1.87,1.2,1.87,1.87h0c0,1.87-2.27,1.33-3.07-.67-.53-1.33-.13-1.73,1.2-1.2ZM1179.06,230.56c.4-.8,1.47-1.33,2.13-1.33.8,0,.93.53.53,1.33-.4.67-1.47,1.33-2.13,1.33-.8,0-.93-.67-.53-1.33ZM967.87,338.69c3.2-8.93,19.07-27.33,20.93-24.4.8,1.2,2.67,1.33,7.73.4,3.6-.67,12.27-2.27,19.2-3.6,6.93-1.2,13.07-2.67,13.6-3.07,1.07-.8,14.4-1.73,14.4-.93h0c0,.27-6,4.27-13.47,8.8-7.33,4.53-13.73,9.07-14,10-.4.93-2.13,2.13-4,2.53-1.73.53-3.2,1.47-3.2,2.13,0,.8-.8,1.33-1.6,1.33-2.13,0-14.13,6.13-16.93,8.53-2.93,2.53-25.47,8.27-25.47,6.4,0-.4,1.2-4,2.8-8.13ZM931.87,387.76c-2,1.87-4.13,5.07-4.53,6.93-.53,2-1.87,4-3.07,4.4-5.47,2.13-3.6-3.47,3.47-10.93,4.93-5.2,8-6.93,8-4.67h0c0,.4-1.73,2.4-3.87,4.27ZM947.6,362.42c-1.73,1.47-3.47,2.27-3.73,2-.67-.67,4-4.4,5.73-4.53.53,0-.27,1.2-2,2.53ZM940.93,350.56c.8,0,1.47.53,1.47,1.33,0,.67-.27,1.33-.53,1.33-.4,0-1.07-.67-1.47-1.33-.4-.8-.13-1.33.53-1.33ZM862.4,401.22c.8,0,1.33.53,1.33,1.33,0,.67-.53,1.33-1.33,1.33-.67,0-1.33-.67-1.33-1.33,0-.8.67-1.33,1.33-1.33ZM812.53,434.96c.4.4.53,1.6.13,2.53-.4,1.07-.8.67-.8-.8-.13-1.47.27-2.27.67-1.73ZM749.87,468.69c.93-2.4,2.67-2.8,3.87-.8.4.67.53,1.33.13,1.33-.27,0-1.6.4-2.67.8-1.6.67-2,.27-1.33-1.33ZM727.73,488.82c1.6.4,2.67-.27,3.2-2,.8-1.71,2.31-2.98,4.13-3.47,1.87-.53,3.33-1.87,3.33-3.07,0-1.73.4-1.87,1.6-.67.93.93,2.13,1.6,2.93,1.6.67,0,.8-.4.4-.93-1.33-1.33,3.2-5.73,5.87-5.73,1.33,0,4-1.33,6.13-3.07,2-1.6,5.47-3.73,7.6-4.67,3.07-1.33,3.47-2,2.13-3.6-.93-1.2-1.33-2.53-.8-3.07.53-.53,1.73.13,2.8,1.47,1.87,2.53,5.33,1.87,6.53-1.33.67-1.73,1.2-1.73,2.93-.27,1.6,1.33,2.4,1.2,4.27-.53,2-2.13,2-2.27-.13-2.27-2.93,0-2.93-2.53.13-3.6,1.2-.4,3.33-1.73,4.53-2.8,1.33-1.07,4-1.87,6-1.87s4.53-.67,5.6-1.6c1.07-.8,3.2-1.6,4.67-1.73,6.67-.53,12-3.07,6.4-3.07-1.6,0-2.93-.53-2.93-1.2s1.6-1.07,3.47-.8c2.13.13,4-.53,4.93-2.13.93-1.47,2.4-2.53,3.33-2.53s1.33.67.8,1.47c-.53.93-.13,1.33.8.93.93-.27,2-2,2.27-3.87.27-1.73,1.2-3.47,2-3.73.8-.27,2.53-1.6,3.87-2.93,3.33-3.33,4.93-3.2,1.87.13-1.33,1.47-2,3.07-1.47,3.73.53.53,1.73,0,2.53-1.2.93-1.2,2.93-2.53,4.67-3.07,1.6-.53,2.93-1.6,2.93-2.4,0-.67-.93-1.07-2-.53-2.53.93-2.53-.13,0-2.8,1.2-1.07,3.6-2.13,5.6-2.4,2-.13,4.67-1.87,6-3.73,1.47-2,3.33-3.2,4.4-2.67,1.33.4,2.4-.53,3.33-2.8,1.2-3.33,4-4.8,4-2.13,0,.67.67,1.33,1.33,1.33.8,0,1.33-.93,1.33-2s.8-1.6,1.73-1.33c.8.4,3.07-1.47,4.93-4,1.87-2.53,4-4.67,4.8-4.67.67,0,2.53-1.2,4.13-2.53,1.47-1.47,5.2-3.87,8.27-5.33,2.93-1.6,5.47-3.73,5.47-4.8s.67-2,1.47-2,2.27-.93,3.33-2c1.07-1.07,2.8-1.6,3.87-1.2,1.07.53,2.93.4,4.13,0,1.6-.67,1.87-1.2.67-2.67-1.2-1.33-1.07-2.13.53-3.47,1.6-1.33,2-1.2,2,.67,0,1.2.8,2,1.73,1.6.8-.27,1.6-1.73,1.6-3.33.13-3.73,9.2-10,12.93-8.8,3.33.93,7.87-2.93,6.8-5.87-.53-1.2-.27-1.73.53-1.2s2.4,0,3.47-1.07c1.2-1.07,2.67-2,3.47-2,2.53,0-5.73,10.67-8.8,11.47-3.47.93-4.13,3.2-.93,3.2,1.87,0,1.87.4.53,2-1.2,1.47-1.33,2.53-.4,3.47s2.13.27,3.6-2c1.2-2,1.6-3.47.8-3.47-2.53,0-1.33-2,2.67-4.27,2.4-1.33,4-3.33,4-5.07,0-1.47.93-2.67,2.13-2.67,2.53,0,5.87-3.2,5.87-5.73,0-2.8,1.6-3.73,3.6-2,1.6,1.2,1.47,2-.8,4.27h0c-1.47,1.6-4.67,5.07-6.93,7.73-3.47,4.27-3.73,5.07-1.73,5.07s1.73.53-1.2,3.73c-3.87,4.13-4.8,7.73-1.6,6.4,2.27-.8,2.8,1.2.67,2.53-.8.53-2.4.13-3.6-.8-1.73-1.47-2.53-1.2-5.2,1.87-1.73,2.13-3.2,4.67-3.2,5.73s-.67,1.87-1.47,1.87-1.2-.93-.67-2c.4-1.07.27-2-.4-2-2,0-2.8,1.73-1.33,3.47,2,2.4-5.33,12.67-11.73,16.67-5.2,3.2-9.73,7.47-9.73,9.33,0,.53-.4,1.87-.8,3.07s-.13,2.13.67,2.13c1.87,0,8-6.67,8.13-8.67,0-1.73,9.2-8,10.13-6.93,1.2,1.07-1.73,5.73-5.47,8.67-1.87,1.47-3.33,3.2-3.33,3.73s-2.27,3.33-4.93,6.13c-3.47,3.6-6.13,5.07-8.8,5.07-3.07,0-3.6.4-2.93,2.53.53,2-1.33,4-8.4,9.33-10,7.33-13.33,8.67-10.93,4.13.93-1.6.93-2.67.13-2.67-1.87,0-3.47,2.8-3.47,5.87,0,1.73-2,3.6-5.6,5.33-3.07,1.6-6.67,3.87-8,5.2-1.47,1.2-3.6,2.27-4.8,2.27s-2.53.67-2.93,1.33c-.53.8-1.47,1.07-2.13.53-.67-.4-.93-1.2-.67-1.73,1.07-1.6-1.47-4.53-3.07-3.6-.93.67-.93,1.6.13,3.47,2.27,3.6-.27,5.87-6.27,5.73-3.07-.13-4.67.53-4.67,1.6,0,.93-1.73,2.13-4,2.67-2.13.53-4.27,1.47-4.67,2.13-1.2,1.87-6,1.47-6.13-.53,0-.8-.53-.27-1.2,1.47-.8,1.87-2.8,3.33-5.33,3.73-2.27.53-4.4,1.47-4.8,2.13-.4.67-1.6.53-2.8-.53-1.6-1.33-2.27-1.2-3.6.53-2.13,2.8-7.73,5.07-12.67,5.07-2.13,0-4.53.8-5.33,1.87-.93,1.07-2.8,1.6-4.13,1.2-1.47-.4-3.47,0-4.53.8-1.45.97-3.19,1.44-4.93,1.33-1.73,0-5.87.93-9.2,2.13-3.2,1.2-7.07,1.87-8.53,1.47-1.47-.4-3.73.27-5.07,1.47-1.33,1.2-2.8,1.73-3.2,1.33-.53-.4-2.53,0-4.53,1.07s-4.93,1.73-6.53,1.6l-2.93-.13,3.07-2.4c1.73-1.33,4.13-2.4,5.47-2.4,1.2,0,2.27-.67,2.27-1.33,0-1.87-1.47-1.73-7.2.67-3.73,1.6-4.8,2.8-4.8,5.33,0,1.87-.53,3.33-1.33,3.33-.67,0-.93-.8-.53-1.87.4-1.07.13-2.27-.53-2.67-2.4-1.47-.27-5.87,2.4-5.2ZM719.33,496.29c.93-2.27,1.07-2.27,1.47.13.27,1.33-.13,3.07-.93,3.87h0c-1.73,1.73-2-.13-.53-4ZM691.33,520.02c.13-.13,0,.8-.4,1.87-.93,2.13-3.2,2.8-3.2.8,0-1.07.93-1.73,3.6-2.67ZM676.93,558.55c.8,0,1.47.53,1.47,1.33,0,.67-.27,1.33-.53,1.33-.4,0-1.07-.67-1.47-1.33-.4-.8-.13-1.33.53-1.33Z"/>
  <path d="M918.66,366.67c-2.53,2.27-2.8,3.2-1.6,5.6,1.07,2.27,1.47,2.4,1.47.93.13-1.2,1.47-3.07,3.2-4.27,2.13-1.47,2.53-2.4,1.47-3.47s-2.27-.8-4.53,1.2M921.33,372.67c-2.8,3.33-.13,4.13,3.07.93,2.27-2.4,2.4-2.93.67-2.93-1.07,0-2.8.93-3.73,2M912.13,376.4c-1.73,2.27-.67,3.73,2,2.67,1.33-.53,1.6,0,1.07,1.47-.4,1.2-.13,2.13.67,2.13,1.6,0,1.73-.8.67-5.07-.93-3.33-2.27-3.73-4.4-1.2M920.4,379.6c-.4,1.33-1.07,2.8-1.33,3.33-.27.67,0,1.07.53,1.07,1.87,0,4.53-5.07,3.07-6-.8-.53-1.73.27-2.27,1.6M905.06,383.2c-2.93,2.13-3.07,4.27-.27,5.33,1.2.53,1.73.27,1.07-.67-.53-.8-.13-2,.8-2.53s1.47-1.6,1.2-2.4c-.4-.93-1.33-.8-2.8.27M891.33,388c-2.4,1.6-3.2,2.67-1.87,2.67,2.4,0,7.47-3.47,6.53-4.53-.4-.4-2.53.53-4.67,1.87M919.06,387.6c-.4,1.33-1.07,2.93-1.47,3.47-.27.67.67.4,2.27-.67,3.07-1.87,3.47-3.2,1.47-4.4-.8-.4-1.73.27-2.27,1.6M909.33,388.67c-1.47,1.73-1.2,2,1.73,1.73,2.13-.13,3.07-.93,2.67-2-.93-2.27-2.4-2.13-4.4.27M900.66,392c-.53.8-1.47,1.07-2.13.67-.67-.53-1.2.13-1.2,1.33,0,1.6.67,2,2.13,1.47,1.2-.4,2.67-.8,3.33-.8s1.2-.93,1.2-2c0-2.27-2.13-2.67-3.33-.67M882.93,394.67c-1.6,1.47-3.47,2.67-4.27,2.67-.67,0-1.33.67-1.33,1.47s.4,1.2,1.07.93c6.67-3.2,8.27-4.4,8.27-6,0-2.27-.27-2.27-3.73.93M902.66,397.33c-1.07.67-1.6,1.6-1.2,2,1.07,1.07,5.2-.67,5.2-2.13s-1.47-1.47-4,.13M890.8,399.2c-.8.93-1.2,2.67-.67,3.87.67,1.73,1.07,1.73,3.33-.53,1.33-1.33,2.53-3.2,2.53-3.87,0-2-3.47-1.6-5.2.53M875.33,402.67c-.4.67-.13,1.33.53,1.33.8,0,1.47-.67,1.47-1.33,0-.8-.27-1.33-.53-1.33-.4,0-1.07.53-1.47,1.33M884,408c0,.67.8,1.33,1.87,1.33s2.4-.67,2.8-1.33c.4-.8-.4-1.33-1.87-1.33-1.6,0-2.8.53-2.8,1.33M896.8,409.73c.4,1.33,1.2,2,1.6,1.6s0-1.47-.93-2.4c-1.33-1.2-1.47-1.07-.67.8M886.66,413.33c0,.67.67,1.33,1.33,1.33.8,0,1.33-.67,1.33-1.33,0-.8-.53-1.33-1.33-1.33-.74,0-1.33.6-1.33,1.33M895.2,416.67c-1.2,2.93.67,5.07,2.93,3.2,2.4-2,2.4-3.33-.13-4.4-1.2-.4-2.4.13-2.8,1.2M858.66,417.47c0,.67.67.93,1.33.53.8-.4,1.33-1.07,1.33-1.47,0-.27-.53-.53-1.33-.53-.67,0-1.33.67-1.33,1.47M848,423.47c0,1.07.67,1.6,1.33,1.2.8-.53,1.07-1.47.67-2.13-1.2-1.87-2-1.47-2,.93M882.66,423.33c-2.27,2.8-1.07,3.73,2,1.47,1.47-1.07,1.87-2,1.07-2.53s-2.13,0-3.07,1.07M890,425.33c-.4.67.13,1.33,1.33,1.33s1.73-.67,1.33-1.33c-.4-.8-1.07-1.33-1.33-1.33s-.93.53-1.33,1.33M867.33,426.67c-.4.67-.13,1.33.53,1.33.8,0,1.47-.67,1.47-1.33,0-.8-.27-1.33-.53-1.33-.4,0-1.07.53-1.47,1.33M876,428.67c-.93,1.07-1.07,2-.27,2,.67,0,2-.93,2.93-2s1.07-2,.27-2c-.67,0-2,.93-2.93,2M838.53,430.13c-1.6,1.87-1.47,2.13.67,1.73,1.47-.27,2.8-1.33,3.2-2.27.67-2.27-1.73-2-3.87.53M885.73,428.93c-2.93,1.07-2,4.27.93,3.47,1.47-.4,2.67-1.6,2.67-2.53,0-1.87-.8-2.13-3.6-.93M859.33,433.33c-.4.67.13,1.33,1.2,1.33,1.2,0,2.13-.67,2.13-1.33,0-.8-.53-1.33-1.2-1.33-.8,0-1.73.53-2.13,1.33M848.26,436.27c-2.4,2.4-1.87,3.6,1.07,2.8,2.8-.8,3.47-2.4,1.6-3.6-.67-.4-1.87,0-2.67.8M865.33,436c-1.07.67-1.47,1.6-1.07,2.13,1.33,1.2,5.07-.4,5.07-2.13,0-1.6-1.33-1.73-4,0M852,442.67c-3.33,2.53-3.2,4.67.13,3.33,2.13-.8,5.73-6,4.27-6-.67,0-2.53,1.2-4.4,2.67M825.33,442.67c0,.67.93,1.33,2,1.33s2-.67,2-1.33c0-.8-.93-1.33-2-1.33s-2,.53-2,1.33M814.66,444c0,.67.93,1.33,2,1.33s2-.67,2-1.33c0-.8-.93-1.33-2-1.33s-2,.53-2,1.33M864,445.33c-1.2.8-1.33,1.33-.4,1.33.8,0,2-.67,2.4-1.33,1.07-1.6.53-1.6-2,0M836.93,446.27c-1.73,1.6-.93,3.07,1.6,3.07,1.33,0,2.8-.93,3.33-2,.67-2-3.2-2.93-4.93-1.07M856.13,448c-1.73,1.33-2.8,3.2-2.53,4,.4,1.33,7.73-4.13,7.73-5.87,0-1.6-2.27-.8-5.2,1.87M830.13,447.87c-.53.93-.67,2-.27,2.4,1.2,1.2,2.53-.53,1.87-2.4-.53-1.47-.8-1.47-1.6,0M821.33,451.33c0,1.07.67,2,1.33,2,.8,0,1.33-.93,1.33-2s-.53-2-1.33-2c-.67,0-1.33.93-1.33,2M786.13,452.8c-.53,1.2-.67,2.53-.4,2.8,1.07,1.07,4.93-1.33,4.93-3.07,0-2.53-3.47-2.4-4.53.27M793.33,452c0,.67.67,1.33,1.33,1.33.8,0,1.33-.67,1.33-1.33,0-.8-.53-1.33-1.33-1.33-.74,0-1.33.6-1.33,1.33M802.66,452c0,.67.67,1.33,1.33,1.33.8,0,1.33-.67,1.33-1.33,0-.8-.53-1.33-1.33-1.33-.74,0-1.33.6-1.33,1.33M812.66,452c-.4.67-.13,1.33.53,1.33.8,0,1.47-.67,1.47-1.33,0-.8-.27-1.33-.53-1.33-.4,0-1.07.53-1.47,1.33M836,454.67c-1.07.67-1.6,1.6-1.2,2,.53.4,1.6-.13,2.53-1.33,1.87-2.27,1.47-2.53-1.33-.67M828,456c0,.67.67,1.33,1.33,1.33.8,0,1.33-.67,1.33-1.33,0-.8-.53-1.33-1.33-1.33-.74,0-1.33.6-1.33,1.33M804,457.33c0,.67.67,1.33,1.33,1.33.8,0,1.33-.67,1.33-1.33,0-.8-.53-1.33-1.33-1.33-.74,0-1.33.6-1.33,1.33M793.33,461.47c0,.67.67.93,1.33.53.8-.4,1.33-1.07,1.33-1.47,0-.27-.53-.53-1.33-.53-.67,0-1.33.67-1.33,1.47M825.33,462.67c0,.67.67,1.33,1.33,1.33.8,0,1.33-.67,1.33-1.33,0-.8-.53-1.33-1.33-1.33-.74,0-1.33.6-1.33,1.33M780.67,464.13c-1.47,2.27.13,2.8,2,.53,1.07-1.2,1.07-2,.27-2s-1.87.67-2.27,1.47M771.73,467.6c.93.4,2.13.27,2.53-.13.53-.4-.27-.8-1.73-.67-1.47,0-1.87.4-.8.8M810.67,468.13c0,.67.67.93,1.33.53.8-.4,1.33-1.07,1.33-1.47,0-.27-.53-.53-1.33-.53-.67,0-1.33.67-1.33,1.47M766.67,469.47c0,.67.67.93,1.33.53.8-.4,1.33-1.07,1.33-1.47,0-.27-.53-.53-1.33-.53-.67,0-1.33.67-1.33,1.47M760.67,473.33c-.4.67.13,1.33,1.33,1.33s1.73-.67,1.33-1.33c-.4-.8-1.07-1.33-1.33-1.33s-.93.53-1.33,1.33M775.33,474.67c-.4.67-.13,1.33.53,1.33.8,0,1.47-.67,1.47-1.33,0-.8-.27-1.33-.53-1.33-.4,0-1.07.53-1.47,1.33M754.8,479.2c-1.33,1.6-.8,3.47,1.33,3.47,1.47,0,2.53-3.87,1.33-4.67-.67-.27-1.87.13-2.67,1.2M766,478.67c.4.67,1.47,1.33,2.13,1.33.8,0,.93-.67.53-1.33-.4-.8-1.47-1.33-2.13-1.33-.8,0-.93.53-.53,1.33M746,485.33c.53.8,1.47,1.07,2.13.67,1.87-1.2,1.47-2-.93-2-1.07,0-1.6.67-1.2,1.33M708.4,519.6c.53.4.27,1.6-.67,2.67-1.6,2-.67,3.73,1.47,2.4,2-1.07,1.87-6-.13-6-.8,0-1.07.4-.67.93M835.33,525.2c-.4.67-.13,1.6.67,2.13,1.6.93,4-.27,4-2.13,0-1.6-3.6-1.6-4.67,0M848.66,525.2c-1.33,2.13.27,4,5.6,6.13,5.87,2.53,9.87,2.53,12.93.27,2.4-1.73,2.4-1.87.27-2.67-1.33-.53-3.33-.4-4.53.27-1.33.8-3.07.8-4.53,0-1.33-.67-2.4-.93-2.4-.4s-1.47-.4-3.2-2c-2-1.87-3.47-2.53-4.13-1.6M806.66,526.67c0,.67.67,1.33,1.33,1.33.8,0,1.33-.67,1.33-1.33,0-.8-.53-1.33-1.33-1.33-.74,0-1.33.6-1.33,1.33M814,526.8c-1.33,2,.4,3.33,2.13,1.6.93-.93.93-1.73.13-2.27-.8-.4-1.87-.13-2.27.67M820.66,529.47c-1.33,2,.4,3.33,2.13,1.6.93-.93.93-1.73.13-2.27-.8-.4-1.87-.13-2.27.67M789.6,530.8c.27.93,1.33,2,2.27,2.27,1.07.4,1.6-.13,1.2-1.2-.27-.93-1.33-2-2.27-2.27-1.07-.4-1.6.13-1.2,1.2M830,532c-.4.67.13,1.33,1.33,1.33s1.73-.67,1.33-1.33c-.4-.8-1.07-1.33-1.33-1.33s-.93.53-1.33,1.33M871.06,534.53c0,4.13.67,4.13,7.33.67q3.07-1.6-1.2-3.07c-5.87-2-6.13-2-6.13,2.4M770,533.33c-.4.67.4,1.33,1.87,1.33,1.6,0,2.8-.67,2.8-1.33,0-.8-.8-1.33-1.87-1.33s-2.4.53-2.8,1.33M784,533.33c0,.67.67,1.33,1.33,1.33.8,0,1.33-.67,1.33-1.33,0-.8-.53-1.33-1.33-1.33-.74,0-1.33.6-1.33,1.33M845.33,533.33c0,.67,1.2,1.33,2.67,1.33s2.67-.67,2.67-1.33c0-.8-1.2-1.33-2.67-1.33s-2.67.53-2.67,1.33M798.66,534.67c0,.67.53,1.33,1.2,1.33.8,0,1.73-.67,2.13-1.33.4-.8-.13-1.33-1.2-1.33-1.2,0-2.13.53-2.13,1.33M809.33,536c0,.67.67,1.33,1.33,1.33.8,0,1.33-.67,1.33-1.33,0-.8-.53-1.33-1.33-1.33-.74,0-1.33.6-1.33,1.33M780.8,537.07c-.4.8-.13,1.87.67,2.27,2,1.33,3.33-.4,1.6-2.13-.93-.93-1.73-.93-2.27-.13M744.13,539.2c-1.2,1.33-1.2,2.13-.13,2.8,2.27,1.33,4.93-1.6,3.2-3.33-1.07-1.07-2-.8-3.07.53M773.33,538.67c0,.67.53,1.33,1.2,1.33.8,0,1.73-.67,2.13-1.33.4-.8-.13-1.33-1.2-1.33-1.2,0-2.13.53-2.13,1.33M858,538.67c.53.8,1.47,1.07,2.13.67,1.87-1.2,1.47-2-.93-2-1.07,0-1.6.67-1.2,1.33M752.4,540c-4.27,1.73-3.87,3.2.53,2.13,2.27-.67,3.87-.4,4.53.8.93,1.33,1.47,1.33,2.8,0,1.2-1.2,1.2-1.6-.67-1.6-1.2,0-2.27-.67-2.27-1.33,0-1.6-.93-1.6-4.93,0M788,540c0,.67.93,1.33,2,1.33s2-.67,2-1.33c0-.8-.93-1.33-2-1.33s-2,.53-2,1.33M802.66,543.33c0,1.2.67,2,1.33,1.73,1.6-.53,1.47-2.13-.13-3.2-.67-.4-1.2.27-1.2,1.47M734.66,544c0,.67.93,1.33,2,1.33s2-.67,2-1.33c0-.8-.93-1.33-2-1.33s-2,.53-2,1.33M764,543.87c0,2.53,2.93,3.07,5.07.93,2-2,1.87-2.13-1.47-2.13-2,0-3.6.53-3.6,1.2M746.66,548.53c0,4.13.8,4.53,1.73.8.4-1.47.13-3.07-.53-3.47s-1.2.8-1.2,2.67M772,546.67c0,.67.67,1.33,1.47,1.33.67,0,.93-.67.53-1.33-.4-.8-1.07-1.33-1.47-1.33-.27,0-.53.53-.53,1.33M794,549.33c-.4.67-.27,1.33.53,1.33.67,0,1.73-.67,2.13-1.33.4-.8.27-1.33-.53-1.33-.67,0-1.73.53-2.13,1.33M759.2,551.6c.27,1.2,1.33,2.27,2.53,2.53,2.8.4,2.8-.4.4-2.93-2.53-2.4-3.33-2.4-2.93.4M781.33,552c0,.67.67,1.33,1.33,1.33.8,0,1.33-.67,1.33-1.33,0-.8-.53-1.33-1.33-1.33-.74,0-1.33.6-1.33,1.33M806.66,552c0,.67.67,1.33,1.33,1.33.8,0,1.33-.67,1.33-1.33,0-.8-.53-1.33-1.33-1.33-.74,0-1.33.6-1.33,1.33M749.33,554c0,1.2.67,2,1.33,1.73,1.6-.53,1.47-2.13-.13-3.2-.67-.4-1.2.27-1.2,1.47M769.33,556c0,.67.67,1.33,1.33,1.33.8,0,1.33-.67,1.33-1.33,0-.8-.53-1.33-1.33-1.33-.74,0-1.33.6-1.33,1.33M894,538.67c.4.67,1.07,1.33,1.47,1.33.27,0,.53-.67.53-1.33,0-.8-.67-1.33-1.47-1.33-.67,0-.93.53-.53,1.33M900.8,542c.53,1.07,1.33,1.6,2,1.2,1.47-.8.27-3.2-1.47-3.2-.67,0-.93.93-.53,2M941.33,546c0,1.07.67,2,1.33,2,.8,0,1.33-.93,1.33-2s-.53-2-1.33-2c-.67,0-1.33.93-1.33,2M948.93,547.6c-.53.4-.93,1.33-.93,1.87,0,1.47,10.67,4.27,11.73,3.2,1.2-1.07-3.73-4.8-5.2-4-.53.4-1.33.13-1.87-.67-.93-1.6-2.53-1.73-3.73-.4M962.66,552c0,.67.93,1.33,2,1.33s2-.67,2-1.33c0-.8-.93-1.33-2-1.33s-2,.53-2,1.33M868,556.13c0,.67.67.93,1.33.53.8-.4,1.33-1.07,1.33-1.47,0-.27-.53-.53-1.33-.53-.67,0-1.33.67-1.33,1.47M863.06,558.27c-2.13.8-2.27,5.73-.27,5.73.67,0,.93-.67.53-1.33-.53-.8-.13-2.27.67-3.33,1.73-2.13,1.6-2.13-.93-1.07M869.33,562.67c0,.67.93,1.33,2,1.33s2-.67,2-1.33c0-.8-.93-1.33-2-1.33s-2,.53-2,1.33M848,564c0,.67.67,1.33,1.47,1.33.67,0,.93-.67.53-1.33-.4-.8-1.07-1.33-1.47-1.33-.27,0-.53.53-.53,1.33M885.33,564c0,.67.67,1.33,1.33,1.33.8,0,1.33-.67,1.33-1.33,0-.8-.53-1.33-1.33-1.33-.74,0-1.33.6-1.33,1.33M854.66,565.33c0,.67.67,1.33,1.33,1.33.8,0,1.33-.67,1.33-1.33,0-.8-.53-1.33-1.33-1.33-.74,0-1.33.6-1.33,1.33M799.33,566.67c.4.67,1.33,1.33,2.13,1.33.67,0,1.2-.67,1.2-1.33,0-.8-.93-1.33-2.13-1.33-1.07,0-1.6.53-1.2,1.33M880.26,566.27c-.8.27-1.33,1.2-.93,1.73.93,1.47,4.67.27,4.67-1.47,0-1.33-1.07-1.33-3.73-.27M838.4,567.6c.93.4,2.13.27,2.53-.13.53-.4-.27-.8-1.73-.67-1.47,0-1.87.4-.8.8M1215.2,228.67c-1.2,2.93.13,3.87,2,1.47,1.07-1.33,1.2-2.13.13-2.8-.67-.4-1.73.13-2.13,1.33M1200.66,229.33c-.93,1.6.27,4,2.13,4,.67,0,1.2-1.2,1.2-2.67,0-2.8-2-3.6-3.33-1.33M1209.33,230.27c0,1.87,2.53,5.07,3.33,4.27,1.07-1.07-.67-5.2-2.13-5.2-.67,0-1.2.4-1.2.93M1220,233.33c0,.67.67,1.33,1.33,1.33.8,0,1.33-.67,1.33-1.33,0-.8-.53-1.33-1.33-1.33-.74,0-1.33.6-1.33,1.33M1228,234.13c0,1.07.67,1.6,1.33,1.2.8-.53,1.07-1.47.67-2.13-1.2-1.87-2-1.47-2,.93M1185.33,234.67c0,.67.67,1.33,1.33,1.33.8,0,1.33-.67,1.33-1.33,0-.8-.53-1.33-1.33-1.33-.74,0-1.33.6-1.33,1.33M1241.33,234.67c0,.67.67,1.33,1.33,1.33.8,0,1.33-.67,1.33-1.33,0-.8-.53-1.33-1.33-1.33-.74,0-1.33.6-1.33,1.33M1247.33,236c.4.67,1.33,1.33,2.13,1.33.67,0,1.2-.67,1.2-1.33,0-.8-.93-1.33-2.13-1.33-1.07,0-1.6.53-1.2,1.33M1252.66,237.33c-.4.67.13,1.33,1.33,1.33s1.73-.67,1.33-1.33c-.4-.8-1.07-1.33-1.33-1.33s-.93.53-1.33,1.33M1266.66,237.2c0,1.33,8.8,10.8,10.13,10.8,2.13,0-2.67-6.53-7.73-10.53-1.6-1.2-2.4-1.33-2.4-.27M1175.46,238.4c-.4.8-.13,1.87.67,2.27,2,1.33,3.33-.4,1.6-2.13-.93-.93-1.73-.93-2.27-.13M1180,238.67c0,.67.67,1.33,1.33,1.33.8,0,1.33-.67,1.33-1.33,0-.8-.53-1.33-1.33-1.33-.74,0-1.33.6-1.33,1.33M1188.66,238.67c-.4.67.13,1.33,1.33,1.33s1.73-.67,1.33-1.33c-.4-.8-1.07-1.33-1.33-1.33s-.93.53-1.33,1.33M1196,238.67c0,.67.67,1.33,1.33,1.33.8,0,1.33-.67,1.33-1.33,0-.8-.53-1.33-1.33-1.33-.74,0-1.33.6-1.33,1.33M1202.66,240.13c0,.67.67.93,1.33.53.8-.4,1.33-1.07,1.33-1.47,0-.27-.53-.53-1.33-.53-.67,0-1.33.67-1.33,1.47M1210.66,240.13c0,.67.67.93,1.33.53.8-.4,1.33-1.07,1.33-1.47,0-.27-.53-.53-1.33-.53-.67,0-1.33.67-1.33,1.47M1185.33,242.67c0,.67.67,1.33,1.47,1.33.67,0,.93-.67.53-1.33-.4-.8-1.07-1.33-1.47-1.33-.27,0-.53.53-.53,1.33M1262,242.67c-.4.67-.13,1.33.53,1.33.8,0,1.47-.67,1.47-1.33,0-.8-.27-1.33-.53-1.33-.4,0-1.07.53-1.47,1.33M1172,245.33c0,.67.93,1.33,2,1.33s2-.67,2-1.33c0-.8-.93-1.33-2-1.33s-2,.53-2,1.33M1124.93,247.6c-.53.4-.93,1.73-.93,2.8,0,1.6.4,1.6,2,.27,1.07-.93,2-2.13,2-2.8,0-1.47-1.87-1.6-3.07-.27M1187.33,250.67c-.4.67-.27,1.33.53,1.33.67,0,1.73-.67,2.13-1.33.4-.8.27-1.33-.53-1.33-.67,0-1.73.53-2.13,1.33M1278.13,251.47c.53,1.33,1.73,3.73,2.8,5.2q1.73,2.53,1.73-.13c0-1.6-1.2-3.87-2.67-5.2-2.67-2.4-2.8-2.4-1.87.13M1119.33,253.33c-.4.67-.13,1.33.53,1.33.8,0,1.47-.67,1.47-1.33,0-.8-.27-1.33-.53-1.33-.4,0-1.07.53-1.47,1.33M1114.66,255.2c0,1.2.67,2.13,1.33,2.13.8,0,1.33-.53,1.33-1.2,0-.8-.53-1.73-1.33-2.13-.67-.4-1.33.13-1.33,1.2M1200.8,255.73c-.4.8-.13,1.87.67,2.27,2,1.33,3.33-.4,1.6-2.13-.93-.93-1.73-.93-2.27-.13M1152.8,258.4c-.4.8-.13,1.87.67,2.27,2,1.33,3.33-.4,1.6-2.13-.93-.93-1.73-.93-2.27-.13M1160.66,258.53c-.93,1.6,1.6,3.2,3.33,2.13,1.47-.93.53-3.33-1.33-3.33-.67,0-1.47.53-2,1.2M1168.13,258.53c-1.07.8-1.2,1.47-.4,2,.8.4,1.87.13,2.27-.67,1.2-1.87.27-2.67-1.87-1.33M1176.66,258.67c.4.67,1.33,1.33,2.13,1.33.67,0,1.2-.67,1.2-1.33,0-.8-.93-1.33-2.13-1.33-1.07,0-1.6.53-1.2,1.33M1192.66,258.67c-.4.67-.13,1.33.53,1.33.8,0,1.47-.67,1.47-1.33,0-.8-.27-1.33-.53-1.33-.4,0-1.07.53-1.47,1.33M1207.33,258.67c.4.67,1.07,1.33,1.47,1.33.27,0,.53-.67.53-1.33,0-.8-.67-1.33-1.47-1.33-.67,0-.93.53-.53,1.33M1212,258.67c0,.67.93,1.33,2.13,1.33,1.07,0,1.6-.67,1.2-1.33-.4-.8-1.33-1.33-2.13-1.33-.67,0-1.2.53-1.2,1.33M1108,260c0,.67.8,1.33,1.87,1.33s2.4-.67,2.8-1.33c.4-.8-.4-1.33-1.87-1.33-1.6,0-2.8.53-2.8,1.33M1221.33,259.2c0,.27.93.8,2,1.33,1.07.4,2,.13,2-.53,0-.8-.93-1.33-2-1.33s-2,.27-2,.53M1240,260.4c0,.93,1.2,1.73,2.67,1.73,3.2,0,3.47-1.47.53-2.67-2.93-1.07-3.2-1.07-3.2.93M1273.33,261.33c0,.67.67,1.33,1.33,1.33.8,0,1.33-.67,1.33-1.33,0-.8-.53-1.33-1.33-1.33-.74,0-1.33.6-1.33,1.33M1100.53,263.87c-1.6,1.6-.13,2.8,2.53,2.13,4.67-1.47,5.6-3.07,1.6-2.93-2,.13-3.87.53-4.13.8M1265.33,264c0,.67.67,1.33,1.33,1.33.8,0,1.33-.67,1.33-1.33,0-.8-.53-1.33-1.33-1.33-.74,0-1.33.6-1.33,1.33M1282.26,263.47c-.8.93,1.87,5.87,3.2,5.87.4,0,.53-1.47.13-3.33-.53-3.33-1.73-4.13-3.33-2.53M1073.33,266.8c0,.67.67.93,1.33.53.8-.4,1.33-1.07,1.33-1.47,0-.27-.53-.53-1.33-.53-.67,0-1.33.67-1.33,1.47M1093.33,271.47c0,1.07.67,1.6,1.33,1.2.8-.4,1.33-1.33,1.33-2.13,0-.67-.53-1.2-1.33-1.2-.67,0-1.33.93-1.33,2.13M1284.13,272.53c-1.07,1.33-1.2,2.13-.13,2.8.67.4,1.73-.13,2.13-1.33,1.2-2.93-.13-3.87-2-1.47M1062.66,273.47c0,.67.67.93,1.33.53.8-.4,1.33-1.07,1.33-1.47,0-.27-.53-.53-1.33-.53-.67,0-1.33.67-1.33,1.47M1102.66,273.33c-1.73,1.07-1.6,1.33.4,1.33,1.2,0,2.27-.67,2.27-1.33,0-1.6-.13-1.6-2.67,0M1108.8,278.4c-1.2,1.47-5.47,4.13-9.47,6.27-4,2-7.33,4.13-7.33,4.8s-1.47,1.2-3.33,1.2c-4.27,0-12.67,3.47-12.67,5.2,0,1.2,4,.8,8.67-1.2,7.6-3.07,11.47-4.27,12-3.73,1.6,1.6-12.53,33.07-14.93,33.07-.93,0-1.73.93-1.73,2s.53,2,1.33,2c2.13,0,11.73-15.33,14.13-22.8,3.33-10.27,7.33-17.2,11.47-20.27l3.6-2.67,9.73,3.73c5.33,2.13,12.4,5.47,15.73,7.6,3.33,2,7.33,4.27,8.93,4.93,3.6,1.6,5.07,4.53,6.27,11.73,1.2,8.13-5.2,21.33-11.47,23.33-.8.27-1.2,1.6-.93,2.8.4,1.87,2.13.93,8.13-4.67,5.73-5.33,7.73-8.27,8.4-12.13.53-2.93,1.73-4.93,2.8-4.93s1.87-.67,1.87-1.47c0-.67,2.27-2.27,5.07-3.47,6.13-2.67,3.87-3.6-4.93-2-7.47,1.33-8.13,1.07-8.13-3.2,0-3.07-8-11.2-11.07-11.2-1.73,0-6.93-5.33-5.2-5.33,3.07-.13-4.8-2.93-9.47-3.33-3.6-.4-6.4-1.47-7.87-3.33-1.2-1.47-2.8-2.67-3.73-2.67-.8,0-1.07-.67-.67-1.33,1.47-2.4-2.8-1.47-5.2,1.07M1240.26,280.13c.4,1.07,1.07,1.73,1.47,1.47,1.2-.4.93-1.47-.67-2.4-.8-.53-1.07,0-.8.93M1176.66,281.47c-1.33,2,.13,3.07,2.67,2,1.2-.4,1.73-1.33,1.33-2.13-1.07-1.73-2.93-1.73-4,.13M1258.13,282c-.4,1.07-.13,2,.53,2,1.73,0,2.93-2.4,1.47-3.2-.67-.4-1.47.13-2,1.2M1164.66,282.67c-.53.8-.4,2.13.4,2.93s1.6.8,2.27-.27c.53-.8.4-2.13-.4-2.93s-1.6-.8-2.27.27M1155.6,283.6c-1.47,1.33-1.07,5.73.4,5.73,2,0,3.2-4,1.73-5.47-.67-.67-1.6-.8-2.13-.27M1266.8,283.87c-1.07.67-1.2,1.47-.4,2,.67.4,1.6-.13,2.13-1.2.8-2.27.8-2.4-1.73-.8M1137.33,286.67c0,.67.93,1.33,2,1.33s2-.67,2-1.33c0-.8-.93-1.33-2-1.33s-2,.53-2,1.33M1144,286.67c0,.67.67,1.33,1.33,1.33.8,0,1.33-.67,1.33-1.33,0-.8-.53-1.33-1.33-1.33-.74,0-1.33.6-1.33,1.33M1252,286.67c0,.67.67,1.33,1.33,1.33.8,0,1.33-.67,1.33-1.33,0-.8-.53-1.33-1.33-1.33-.74,0-1.33.6-1.33,1.33M1274.53,286.27c0,.53-.27,2.4-.4,4.13-.27,1.6.27,2.8.93,2.53,1.73-.53,2.27-6.13.67-7.07-.53-.4-1.07-.27-1.2.4M1148,288c0,.67.93,1.33,2.13,1.33,1.07,0,1.6-.67,1.2-1.33-.4-.8-1.33-1.33-2.13-1.33-.67,0-1.2.53-1.2,1.33M1281.06,289.2c-1.33,1.6-1.73,3.07-.93,4.27,1.07,1.6,1.47,1.6,2.53-.13,1.2-1.87,1.87-6.67.93-6.67-.13,0-1.33,1.07-2.53,2.53M1165.33,288.53c0,1.2,5.33,1.73,6.13.67.4-.67-.8-1.2-2.67-1.2s-3.47.27-3.47.53"/>
  <path d="M1140.66,290.67c-.4.67-.13,1.33.53,1.33.8,0,1.47-.67,1.47-1.33,0-.8-.27-1.33-.53-1.33-.4,0-1.07.53-1.47,1.33M1232.66,292c-.4.67-.13,1.33.53,1.33.8,0,1.47-.67,1.47-1.33,0-.8-.27-1.33-.53-1.33-.4,0-1.07.53-1.47,1.33M1266.66,292.53c0,1.2.67,2.13,1.33,2.13.8,0,1.33-.53,1.33-1.2,0-.8-.53-1.73-1.33-2.13-.67-.4-1.33.13-1.33,1.2M1036.66,293.33c-1.07,1.6,2.67,3.2,4.67,2,.8-.4,1.07-1.47.67-2.13-1.07-1.6-4.27-1.6-5.33.13M1252,293.47c0,.67.67.93,1.33.53.8-.4,1.33-1.07,1.33-1.47,0-.27-.53-.53-1.33-.53-.67,0-1.33.67-1.33,1.47M1032,296c0,.67.67,1.33,1.33,1.33.8,0,1.33-.67,1.33-1.33,0-.8-.53-1.33-1.33-1.33-.74,0-1.33.6-1.33,1.33M1024.66,297.33c-.53.8.67,1.33,2.53,1.33s3.47-.67,3.47-1.33c0-.8-1.2-1.33-2.53-1.33-1.47,0-3.07.53-3.47,1.33M1258.66,297.33c0,.67.67,1.33,1.33,1.33.8,0,1.33-.67,1.33-1.33,0-.8-.53-1.33-1.33-1.33-.74,0-1.33.6-1.33,1.33M1277.33,300c0,1.47-.67,2.67-1.47,2.67-.93,0-1.07,1.47-.53,3.87.67,3.2.27,4-1.87,4.8-1.6.4-2.8,1.47-2.8,2.13s-.67,1.2-1.47,1.2c-.67,0-.93-.67-.4-1.47.53-.93.13-1.33-.93-.93-2.4.8-2.4,8,0,8.8,1.2.4,1.47-.13.8-2.27-1.07-3.33,2.53-4.13,3.87-.8,1.2,3.2-1.47,8.8-3.87,7.87-2.67-1.07-2.53.8.27,2.8,2,1.47,2,2,.53,3.87-2.13,2.53-.93,4.53,1.47,2.4,2.27-1.73,4.8-10.93,5.6-19.6.27-3.73,1.47-9.2,2.67-12.4,1.73-4.8,1.73-5.6.13-5.6-1.07,0-2,1.2-2,2.67M1206.13,299.87c-.53.67-.27,1.6.4,2,.67.53,1.6.27,2-.4.53-.67.27-1.6-.4-2-.67-.53-1.6-.27-2,.4M1197.33,301.33c0,.67.8,1.33,1.87,1.33s2.4-.67,2.8-1.33c.4-.8-.4-1.33-1.87-1.33-1.6,0-2.8.53-2.8,1.33M1268,300.53c0,.27.93.8,2,1.33,1.07.4,2,.13,2-.53,0-.8-.93-1.33-2-1.33s-2,.27-2,.53M1191.33,302.8c-1.47,2.27.13,2.8,2,.53,1.07-1.2,1.07-2,.27-2s-1.87.67-2.27,1.47M1182,304.13c-.53.8-.67,1.6-.4,1.87.93.93,6.4-.93,6.4-2.13,0-1.73-4.93-1.47-6,.27M1173.73,304.93c-2.4.8-2.13,3.07.13,3.07s4-2.13,2.53-3.07c-.67-.27-1.87-.27-2.67,0M1109.33,306.67c0,.67.67,1.33,1.33,1.33.8,0,1.33-.67,1.33-1.33,0-.8-.53-1.33-1.33-1.33-.74,0-1.33.6-1.33,1.33M1140.8,307.73c-.4.8-.13,1.87.67,2.27,2,1.33,3.33-.4,1.6-2.13-.93-.93-1.73-.93-2.27-.13M1132,309.33c0,.67.67,1.33,1.33,1.33.8,0,1.33-.67,1.33-1.33,0-.8-.53-1.33-1.33-1.33-.74,0-1.33.6-1.33,1.33M1260,312c0,.67.67,1.33,1.33,1.33.8,0,1.33-.67,1.33-1.33,0-.8-.53-1.33-1.33-1.33-.74,0-1.33.6-1.33,1.33M1253.33,314.8c0,.67.67.93,1.33.53.8-.4,1.33-1.07,1.33-1.47,0-.27-.53-.53-1.33-.53-.67,0-1.33.67-1.33,1.47M1167.33,316c-.4.67-.13,1.33.53,1.33.8,0,1.47-.67,1.47-1.33,0-.8-.27-1.33-.53-1.33-.4,0-1.07.53-1.47,1.33M1250,318.67c-.4.67-.13,1.33.53,1.33.8,0,1.47-.67,1.47-1.33,0-.8-.27-1.33-.53-1.33-.4,0-1.07.53-1.47,1.33M1259.33,320c-.4.67.4,2.67,1.87,4.27,1.6,1.6,2.8,2.27,2.8,1.33,0-.8-.67-1.87-1.33-2.27-.8-.53-1.07-1.33-.67-2s.13-1.47-.53-1.87c-.67-.53-1.6-.27-2.13.53M1252,326.8c0,.67.67.93,1.33.53.8-.4,1.33-1.07,1.33-1.47,0-.27-.53-.53-1.33-.53-.67,0-1.33.67-1.33,1.47M1074.26,328.93c-1.6,1.47-1.07,3.07,1.07,3.07,1.07,0,2-.93,2-2,0-2.13-1.6-2.67-3.07-1.07M1066.66,334.53c0,.67.93,1.6,2.13,2,2.93,1.2,3.2,1.07,3.2-1.2,0-1.07-1.2-2-2.67-2s-2.67.53-2.67,1.2M1262,334.67c-.4.67-.13,1.33.53,1.33.8,0,1.47-.67,1.47-1.33,0-.8-.27-1.33-.53-1.33-.4,0-1.07.53-1.47,1.33M1061.33,336c0,.67.67,1.33,1.33,1.33.8,0,1.33-.67,1.33-1.33,0-.8-.53-1.33-1.33-1.33-.74,0-1.33.6-1.33,1.33M1256,335.87c0,.8.67,1.73,1.33,2.13.8.4,1.33-.13,1.33-1.2,0-1.2-.53-2.13-1.33-2.13-.67,0-1.33.53-1.33,1.2M1047.2,338.13c.4,1.2.8,2.4.8,2.67,0,1.47,3.87.27,4.4-1.33.93-2.4-.13-3.47-3.47-3.47-1.73,0-2.27.67-1.73,2.13M1054.66,338c0,1.33.93,2,2.27,1.73,2.93-.53,3.07-2.93.13-3.47-1.47-.27-2.4.4-2.4,1.73M1132.93,339.73c-1.2,1.33-2.27,3.07-2.27,3.87s-1.2,1.73-2.53,2.13c-2.93.67-6.53,6.27-4,6.27,2.8,0,13.73-12,12.4-13.33-.93-.93-2.13-.53-3.6,1.07M1265.73,340.93c-2.27,4.8-2.13,6.4.27,4.4,1.07-.93,1.6-2.13,1.2-2.8s0-1.2.67-1.2c.8,0,1.47-.93,1.47-2,0-3.2-1.87-2.27-3.6,1.6M1250,342.67c.4.67,1.07,1.33,1.47,1.33.27,0,.53-.67.53-1.33,0-.8-.67-1.33-1.47-1.33-.67,0-.93.53-.53,1.33M1031.33,345.47c-.53.8-.4,2,.4,2.8s1.47.53,2-.8c.93-2.4-1.2-4.13-2.4-2M1001.33,346.67c0,.67.93,1.33,2.13,1.33,1.07,0,1.6-.67,1.2-1.33-.4-.8-1.33-1.33-2.13-1.33-.67,0-1.2.53-1.2,1.33M1054,348c-.4.67.13,1.33,1.2,1.33,1.2,0,2.13-.67,2.13-1.33,0-.8-.53-1.33-1.2-1.33-.8,0-1.73.53-2.13,1.33M984.66,350.67c.4.67,1.07,1.33,1.47,1.33.27,0,.53-.67.53-1.33,0-.8-.67-1.33-1.47-1.33-.67,0-.93.53-.53,1.33M1012.66,350.67c.4.67,1.07,1.33,1.47,1.33.27,0,.53-.67.53-1.33,0-.8-.67-1.33-1.47-1.33-.67,0-.93.53-.53,1.33M1048.13,351.2c-1.07,1.2-1.47,2.53-.93,3.07,1.2,1.2,3.87-1.73,3.2-3.6-.27-1.07-1.07-.93-2.27.53M1141.33,350.67c0,.67-.13,1.73-.27,2.27-.53,1.47,5.47,1.6,6.4.27.4-.67-.27-1.2-1.33-1.2-1.2,0-2.13-.67-2.13-1.33,0-.8-.53-1.33-1.33-1.33-.74,0-1.33.6-1.33,1.33M1259.86,351.2c.8.93.93,2.27.4,2.93-.53.53.13.27,1.47-.67,2.53-2,2.13-3.2-1.2-3.6-1.47-.27-1.6.13-.67,1.33M1153.33,352c0,.67.67,1.33,1.33,1.33.8,0,1.33-.67,1.33-1.33,0-.8-.53-1.33-1.33-1.33-.74,0-1.33.6-1.33,1.33M1168.13,352.8c-.93,1.07-1.33,2.4-.93,2.8.93.93,4.8-2.13,4.8-3.73,0-1.73-1.73-1.33-3.87.93M1161.33,352.53c0,.27.93.93,2.13,1.33,1.07.4,1.6.27,1.2-.53-.8-1.33-3.33-1.87-3.33-.8M1179.33,353.33c.4.67,1.07,1.33,1.47,1.33.27,0,.53-.67.53-1.33,0-.8-.67-1.33-1.47-1.33-.67,0-.93.53-.53,1.33M1120,355.33c-2.53,3.07-9.07,16.53-8.4,17.2.4.4,2,.13,3.47-.53,6.53-2.53,8.4-3.07,10.27-2.93,3.2.4,5.07-1.47,6.13-5.73.53-2.27.4-3.6-.13-3.07-.67.53-1.73.53-2.53-.13-1.73-1.33-7.47.53-7.47,2.53,0,.67.93,1.33,2,1.33s2-.8,2-1.73c0-2.13,2.67,1.73,2.67,4,0,1.2-.93,1.07-3.47-.27-2-.93-4.4-1.47-5.33-1.07-2.8,1.07-2.27-.4,1.47-4.13,3.2-3.33,4.53-7.47,2.13-7.47-.67,0-1.87.93-2.8,2M1128.8,354.4c-1.47,1.47-.8,2.53,1.6,2.27,3.07-.13,4.13-2.27,1.33-2.8-1.2-.13-2.53.13-2.93.53M1136,355.2c0,1.2.67,2.13,1.33,2.13.8,0,1.33-.53,1.33-1.2,0-.8-.53-1.73-1.33-2.13-.67-.4-1.33.13-1.33,1.2M1158.66,356.67c0,1.07.67,2,1.33,2,.8,0,1.33-.93,1.33-2s-.53-2-1.33-2c-.67,0-1.33.93-1.33,2M1174.66,357.2c0,.67.67,1.73,1.33,2.13.8.4,1.33.27,1.33-.53,0-.67-.53-1.73-1.33-2.13-.67-.4-1.33-.27-1.33.53M1186.66,357.47c0,.67.67.93,1.33.53.8-.4,1.33-1.07,1.33-1.47,0-.27-.53-.53-1.33-.53-.67,0-1.33.67-1.33,1.47M1257.33,357.33c0,.67.67,1.33,1.33,1.33.8,0,1.33-.67,1.33-1.33,0-.8-.53-1.33-1.33-1.33-.74,0-1.33.6-1.33,1.33M1137.33,359.33c-1.87,1.07-2.67,1.87-1.73,2,.93,0,1.33.93.93,2-.53,1.2,0,2,1.33,2,1.47,0,2.13-1.2,2.27-3.73,0-2,.4-2.8.8-2,.27.93,1.47,1.73,2.53,1.73s1.87.8,1.87,1.6c0,1.33,3.2,1.6,12.93,1.33,7.2-.27,13.33-.8,13.73-1.2,1.6-1.47-3.6-2.53-12-2.4-5.2,0-9.33-.27-9.33-.8,0-1.87-4.53-2.53-5.6-.93-1.07,1.33-1.47,1.33-2,0-.8-2-1.6-2-5.73.4M1253.06,363.33c-.8,1.87-2.27,3.47-3.33,3.47-.93.13-2.27.27-3.07.4-.67,0-2.13,1.33-3.07,2.8-1.6,2.13-2.27,2.27-4,.93-1.73-1.47-2.13-1.33-2.93.93-.93,3.2-2.8,3.6-3.87,1.07-.4-1.2-1.07-.93-2.13.67-1.07,1.87-2.13,2-4.67,1.07-1.87-.67-3.33-.93-3.33-.53,0,.53-.8.27-1.73-.53-2.53-2.13-6.93-1.07-6.93,1.73,0,1.33.8,2.67,1.87,3.07,1.2.4,1.47,0,.8-1.07-.8-1.2-.13-1.33,2.13-.67,1.73.53,3.73,1.87,4.27,2.93.67,1.07,2.67,2.4,4.4,3.07,3.6,1.47,4.27,5.07,1.2,6.13-1.07.53-2.93.13-4-.8-1.33-1.07-2-1.2-2-.27,0,.8,1.07,2.13,2.4,2.8,2,1.2,2,1.6.27,2.8-1.07.67-3.07.93-4.27.53-1.6-.53-2,0-1.47,1.87.27,1.47,0,3.07-.67,3.47-2,1.2-5.33-.4-6-2.93-.53-2-.67-2-.8,0,0,1.33-.53,2.4-1.07,2.4-.67.13-2.53,1.33-4.27,2.8-2.67,2.13-2.93,2.93-1.47,4.27,1.33,1.2,1.47,1.2.8-.13-.53-.93-.13-1.6,1.07-1.6s2.13-.93,2.13-2,.67-2,1.33-2c.8,0,1.33.8,1.33,1.87,0,.93,1.33,2.8,3.07,4,2.67,1.87,2.8,2.13.67,3.47-1.33.8-2.4,2.4-2.4,3.33,0,1.07-.53,2-1.33,2-.67,0-1.6,1.47-2.13,3.33-.4,1.87-1.33,3.33-2,3.33s-1.2.53-1.2,1.33c0,.67.93,1.33,2,1.33s2-.53,2-1.07,2.13-4.27,4.67-8.27c3.47-5.33,4.27-7.47,2.93-8.27-1.07-.67-.93-1.07.67-1.07,1.33,0,3.07-1.33,3.87-3.07,2.4-4.53,12.93-17.33,23.6-28.53,5.2-5.6,9.6-11.07,9.6-12,0-2.67-1.2-2-2.93,1.6M1217.33,402.67c0,.67-.53,1.33-1.33,1.33-.67,0-1.33-.67-1.33-1.33,0-.8.67-1.33,1.33-1.33.8,0,1.33.53,1.33,1.33M1174.66,362.8c0,1.87,3.2,3.07,8.93,3.33,3.2.13,5.73-.27,5.73-.93s-1.33-1.2-3.07-1.2-3.6-.4-4.13-1.07c-1.33-1.2-7.47-1.33-7.47-.13M1089.33,365.33c0,.67.67,1.33,1.33,1.33.8,0,1.33-.67,1.33-1.33,0-.8-.53-1.33-1.33-1.33-.74,0-1.33.6-1.33,1.33M1191.33,368c.4.67,1.07,1.33,1.47,1.33.27,0,.53-.67.53-1.33,0-.8-.67-1.33-1.47-1.33-.67,0-.93.53-.53,1.33M1198,368c-.4.8.8,2,2.93,2.67,2,.8,4.8,2,6.27,2.8,1.73,1.07,2.8,1.07,3.87,0s.93-1.47-.53-1.47c-1.07,0-4.13-1.2-6.8-2.67-2.93-1.6-5.33-2.13-5.73-1.33M1216,368c0,.67.93,1.33,2.13,1.33,1.07,0,1.6-.67,1.2-1.33-.4-.8-1.33-1.33-2.13-1.33-.67,0-1.2.53-1.2,1.33"/>
  <path d="M1229.33,369.33c0,.67.93,1.33,2.13,1.33,1.07,0,1.6-.67,1.2-1.33-.4-.8-1.33-1.33-2.13-1.33-.67,0-1.2.53-1.2,1.33M1082,370.67c-.4.67.13,1.33,1.2,1.33,1.2,0,2.13-.67,2.13-1.33,0-.8-.53-1.33-1.2-1.33-.8,0-1.73.53-2.13,1.33M1004.66,373.33c-.4.67-.13,1.33.53,1.33.8,0,1.47-.67,1.47-1.33,0-.8-.27-1.33-.53-1.33-.4,0-1.07.53-1.47,1.33M1106.26,374.27c-1.33,1.2-1.2,3.07.27,3.07.67,0,1.47-.93,2-2,.67-2-.67-2.67-2.27-1.07M958,376c.4.67,1.07,1.33,1.47,1.33.27,0,.53-.67.53-1.33,0-.8-.67-1.33-1.47-1.33-.67,0-.93.53-.53,1.33M974.13,375.73c-.4.8-.13,1.87.67,2.27,2,1.33,3.33-.4,1.6-2.13-.93-.93-1.73-.93-2.27-.13M990.66,376c0,.67.67,1.33,1.33,1.33.8,0,1.33-.67,1.33-1.33,0-.8-.53-1.33-1.33-1.33-.74,0-1.33.6-1.33,1.33M966.13,378.27c-1.47,1.47-.8,3.07,1.2,3.07,1.07,0,2-.53,2-1.2,0-1.73-2.13-2.93-3.2-1.87M980.8,378.53c-.53.67-.27,1.6.4,2,.67.53,1.6.27,2-.4.53-.67.27-1.6-.4-2-.67-.53-1.6-.27-2,.4M1002.66,380c0,.67.67,1.33,1.33,1.33.8,0,1.33-.67,1.33-1.33,0-.8-.53-1.33-1.33-1.33-.74,0-1.33.6-1.33,1.33M1098.66,380c0,.67.67,1.33,1.33,1.33.8,0,1.33-.67,1.33-1.33,0-.8-.53-1.33-1.33-1.33-.74,0-1.33.6-1.33,1.33M1220,381.2c0,.8.67,1.73,1.33,2.13.8.4,1.33-.13,1.33-1.2,0-1.2-.53-2.13-1.33-2.13-.67,0-1.33.53-1.33,1.2M947.73,382.27c.93.4,2.13.27,2.53-.13.53-.4-.27-.8-1.73-.67-1.47,0-1.87.4-.8.8M996,384.13c0,.67.67.93,1.33.53.8-.4,1.33-1.07,1.33-1.47,0-.27-.53-.53-1.33-.53-.67,0-1.33.67-1.33,1.47M1091.33,384c-.4.67.13,1.33,1.2,1.33,1.2,0,2.13-.67,2.13-1.33,0-.8-.53-1.33-1.2-1.33-.8,0-1.73.53-2.13,1.33M1084,386.67c0,.67.67,1.33,1.33,1.33.8,0,1.33-.67,1.33-1.33,0-.8-.53-1.33-1.33-1.33-.74,0-1.33.6-1.33,1.33M1074.66,388c0,.67.67,1.33,1.47,1.33.67,0,.93-.67.53-1.33-.4-.8-1.07-1.33-1.47-1.33-.27,0-.53.53-.53,1.33M979.33,390.67c-.4.67-.27,1.33.53,1.33.67,0,1.73-.67,2.13-1.33.4-.8.27-1.33-.53-1.33-.67,0-1.73.53-2.13,1.33M1212,392c0,.67.67,1.33,1.47,1.33.67,0,.93-.67.53-1.33-.4-.8-1.07-1.33-1.47-1.33-.27,0-.53.53-.53,1.33M956,397.33c0,.67.67,1.33,1.33,1.33.8,0,1.33-.67,1.33-1.33,0-.8-.53-1.33-1.33-1.33-.74,0-1.33.6-1.33,1.33M1184,400.67c-.93,1.2-1.07,2-.27,2,.67,0,1.6-.93,2.13-2,.4-1.07.53-2,.27-2s-1.2.93-2.13,2M1198.26,400.67c-1.07,2.53,1.73,4.13,3.2,1.87,1.73-2.67,1.47-3.87-.67-3.87-1.07,0-2.13.93-2.53,2M1170.66,401.33c0,.67.67,1.33,1.33,1.33.8,0,1.33-.67,1.33-1.33,0-.8-.53-1.33-1.33-1.33-.74,0-1.33.6-1.33,1.33M1178,401.33c-.4.67-.13,1.33.53,1.33.8,0,1.47-.67,1.47-1.33,0-.8-.27-1.33-.53-1.33-.4,0-1.07.53-1.47,1.33M1191.33,401.2c-.4.67-.13,1.6.67,2.13.67.4,1.33-.13,1.33-1.2,0-2.4-.8-2.8-2-.93M1156.93,402.27c-.53.4-.93,1.47-.93,2.27s.67.67,1.6-.27c.8-.8,1.2-1.87.93-2.27-.4-.4-1.2-.27-1.6.27M1145.33,404c0,.67.53,1.33,1.2,1.33.8,0,1.73-.67,2.13-1.33.4-.8-.13-1.33-1.2-1.33-1.2,0-2.13.53-2.13,1.33M1113.33,410.67c0,.67.67,1.33,1.33,1.33.8,0,1.33-.67,1.33-1.33,0-.8-.53-1.33-1.33-1.33-.74,0-1.33.6-1.33,1.33M1102,413.33c.53.8,1.47,1.07,2.13.67,1.87-1.2,1.47-2-.93-2-1.07,0-1.6.67-1.2,1.33M1204.8,415.47c-1.2,2.93-1.07,3.2,1.2,2.4,1.07-.53,2-1.6,2-2.67,0-2.53-2.13-2.4-3.2.27M1197.33,417.33c0,.67.67,1.33,1.33,1.33.8,0,1.33-.67,1.33-1.33,0-.8-.53-1.33-1.33-1.33-.74,0-1.33.6-1.33,1.33M1082.66,418.67c0,.67.67,1.33,1.33,1.33.8,0,1.33-.67,1.33-1.33,0-.8-.53-1.33-1.33-1.33-.74,0-1.33.6-1.33,1.33M1090.66,419.47c0,1.07.67,1.6,1.33,1.2.8-.53,1.07-1.47.67-2.13-1.2-1.87-2-1.47-2,.93M1106,418.67c-.4.67-.13,1.33.53,1.33.8,0,1.47-.67,1.47-1.33,0-.8-.27-1.33-.53-1.33-.4,0-1.07.53-1.47,1.33M1185.33,422.8c0,1.47.67,2.27,1.33,1.87.8-.4,1.33-1.73,1.33-2.8s-.53-1.87-1.33-1.87c-.67,0-1.33,1.2-1.33,2.8M1194,421.33c-.4.67-.13,1.33.53,1.33.8,0,1.47-.67,1.47-1.33,0-.8-.27-1.33-.53-1.33-.4,0-1.07.53-1.47,1.33M1076,424c0,.67.67,1.33,1.47,1.33.67,0,.93-.67.53-1.33-.4-.8-1.07-1.33-1.47-1.33-.27,0-.53.53-.53,1.33M1081.6,425.33c.93,1.47,2.13,2.67,2.67,2.67.67,0,.4-1.2-.53-2.67s-2.13-2.67-2.67-2.67c-.67,0-.4,1.2.53,2.67M1175.33,424c.53.8,1.47,1.07,2.13.67,1.87-1.2,1.47-2-.93-2-1.07,0-1.6.67-1.2,1.33M1070,425.47c-.53.8-.53,1.73-.13,2.13,1.07,1.07,4.8-.67,4.8-2.27,0-1.73-3.6-1.73-4.67.13M974.66,428c0,.67.93,1.33,2,1.33s2-.67,2-1.33c0-.8-.93-1.33-2-1.33s-2,.53-2,1.33M1203.33,428c-.4.67-.53,1.87,0,2.67,1.07,1.73,4.67.13,4.67-2.13,0-2.13-3.47-2.53-4.67-.53M1196,430.67c0,.67.67,1.6,1.33,2,2.13,1.33,1.47,3.73-.8,2.8-1.2-.4-3.33.13-4.93,1.33q-2.93,2,.8,1.07c2.93-.67,3.6-.4,3.6,1.6,0,1.47-1.6,4-3.33,5.73-1.87,1.6-2.93,3.6-2.53,4.4.4.67-.27,2-1.47,2.93-1.33.93-2.13,2.53-1.73,3.6s3.33-2.27,7.33-8.27c8.27-12.67,8.93-14.8,4.93-16.8-1.73-.8-3.2-.93-3.2-.4M1074.66,432.13c0,.67.67.93,1.33.53.8-.4,1.33-1.07,1.33-1.47,0-.27-.53-.53-1.33-.53-.67,0-1.33.67-1.33,1.47M1076.66,437.33c.4.67,1.07,1.33,1.47,1.33.27,0,.53-.67.53-1.33,0-.8-.67-1.33-1.47-1.33-.67,0-.93.53-.53,1.33M1072.66,439.87c-.8,1.47,1.2,3.07,2.53,1.87,1.2-1.2.93-3.07-.4-3.07-.8,0-1.6.53-2.13,1.2M1184.66,441.2c-.8,1.47,1.2,3.07,2.53,1.87,1.2-1.2.93-3.07-.4-3.07-.8,0-1.6.53-2.13,1.2M1174.4,442c-.4.4-2.13,1.07-3.73,1.33-3.73.67-4.53,1.47-3.33,3.33.67,1.07,1.47,1.07,2.8-.13,1.07-.8,2.27-1.2,2.8-.8,1.07,1.07,5.73-1.47,5.73-3.07,0-1.47-3.07-1.87-4.27-.67M1079.33,444c.4.67,1.6.93,2.67.4,2.8-.93,2.53-1.73-.8-1.73-1.47,0-2.4.53-1.87,1.33M1157.06,444.93c-3.6.27-6.4,1.07-6.4,1.6,0,1.73,12.4.93,13.07-.93.27-.8.27-1.47,0-1.33-.13.13-3.2.4-6.67.67M1028.8,447.33c-.4,1.2-1.33,1.73-2.13,1.33-.67-.4-1.33.13-1.33,1.2,0,3.07,3.73,2.53,4.67-.67,1.07-3.2,0-4.93-1.2-1.87M1084.8,446.27c-1.47,1.47-.8,3.07,1.2,3.07,1.07,0,2-.53,2-1.2,0-1.73-2.13-2.93-3.2-1.87M1126.8,447.6c-.93,1.07-1.47,2.13-1.07,2.53.8.93,4.93-.93,4.93-2.13,0-2.13-2-2.4-3.87-.4M1144,446.67c0,.67-1.07,1.33-2.27,1.47-1.6,0-1.73.27-.67.8,2.4.93,8.27-.67,8.27-2.27,0-.8-1.2-1.33-2.67-1.33s-2.67.53-2.67,1.33M1069.33,447.6c-1.87.4-3.87,1.2-4.53,1.87-.8.67-2.53,1.2-4.13,1.2-2.93,0-6,2.27-6,4.4,0,.67.8.53,1.73-.27,1.07-.8,4.53-1.73,7.73-2.13,11.47-1.33,13.47-2,11.73-4.13-.8-1.07-1.87-1.73-2.4-1.73-.4.13-2.27.53-4.13.8M1079.6,448.53c-.8,2,.13,3.47,2,3.47.53,0,1.07-1.2,1.07-2.67,0-3.07-2-3.6-3.07-.8M1104,448c0,.67.93,1.33,2,1.33s2-.67,2-1.33c0-.8-.93-1.33-2-1.33s-2,.53-2,1.33"/>
  <path d="M1184,448c0,.67.93,1.33,2,1.33s2-.67,2-1.33c0-.8-.93-1.33-2-1.33s-2,.53-2,1.33M1091.46,450c.53,1.07,1.07,2,1.33,2s.53-.93.53-2-.53-2-1.33-2c-.67,0-.93.93-.53,2M1110.66,449.47c0,.67.67.93,1.33.53.8-.4,1.33-1.07,1.33-1.47,0-.27-.53-.53-1.33-.53-.67,0-1.33.67-1.33,1.47M1116,450.8c0,1.47.67,2.27,1.33,1.87.8-.4,1.33-1.73,1.33-2.8s-.53-1.87-1.33-1.87c-.67,0-1.33,1.2-1.33,2.8M1134.66,449.33c0,.67.67,1.33,1.47,1.33.67,0,.93-.67.53-1.33-.4-.8-1.07-1.33-1.47-1.33-.27,0-.53.53-.53,1.33M1084,452c0,.67.67,1.33,1.47,1.33.67,0,.93-.67.53-1.33-.4-.8-1.07-1.33-1.47-1.33-.27,0-.53.53-.53,1.33M1088,452c0,.67.67,1.33,1.33,1.33.8,0,1.33-.67,1.33-1.33,0-.8-.53-1.33-1.33-1.33-.74,0-1.33.6-1.33,1.33M1094.66,452c0,.67,1.33,1.33,3.07,1.33,2.4,0,2.53-.27.93-1.33-2.53-1.73-4-1.73-4,0M915.46,453.2c-.53.67-.27,1.6.4,2,.67.53,1.6.27,2-.4.53-.67.27-1.6-.4-2-.67-.53-1.6-.27-2,.4M1019.33,453.33c-.4.67.13,1.33,1.2,1.33,1.2,0,2.13-.67,2.13-1.33,0-.8-.53-1.33-1.2-1.33-.8,0-1.73.53-2.13,1.33M1105.33,453.33c0,.67.53,1.33,1.2,1.33.8,0,1.73-.67,2.13-1.33.4-.8-.13-1.33-1.2-1.33-1.2,0-2.13.53-2.13,1.33M1147.33,454.67c.4.67,1.07,1.33,1.47,1.33.27,0,.53-.67.53-1.33,0-.8-.67-1.33-1.47-1.33-.67,0-.93.53-.53,1.33M1156,454.67c0,.67.67,1.33,1.33,1.33.8,0,1.33-.67,1.33-1.33,0-.8-.53-1.33-1.33-1.33-.74,0-1.33.6-1.33,1.33M903.73,456.93c-1.33.27-2.4,1.07-2.4,1.73,0,.53,1.2.8,2.67.4s2.67-1.2,2.67-1.87-.13-1.07-.27-1.07c-.27.13-1.47.4-2.67.8M1009.33,457.33c0,.67.8,1.33,1.87,1.33s2.4-.67,2.8-1.33c.4-.8-.4-1.33-1.87-1.33-1.6,0-2.8.53-2.8,1.33M926,460c.4.67,1.07,1.33,1.47,1.33.27,0,.53-.67.53-1.33,0-.8-.67-1.33-1.47-1.33-.67,0-.93.53-.53,1.33M1000,460c0,.67,1.2,1.33,2.67,1.33s2.67-.67,2.67-1.33c0-.8-1.2-1.33-2.67-1.33s-2.67.53-2.67,1.33M1182,460.13c-1.47,2.27.13,2.8,2,.53,1.07-1.2,1.07-2,.27-2s-1.87.67-2.27,1.47M992.4,460.93c-2.67.93-2,3.07.93,3.07,1.47,0,2.67-.53,2.67-1.2,0-1.73-1.6-2.53-3.6-1.87M978.26,464.27c-2.8,1.47-4.8,2.93-4.53,3.2.67.8,12.93-1.6,14-2.67.8-.93-2.13-3.47-3.73-3.33-.4,0-2.93,1.33-5.73,2.8M908,463.87c0,.67,1.2.93,2.67.53s2.67-.93,2.67-1.2-1.2-.53-2.67-.53-2.67.53-2.67,1.2M1146.66,464c0,.67.67,1.33,1.33,1.33.8,0,1.33-.67,1.33-1.33,0-.8-.53-1.33-1.33-1.33-.74,0-1.33.6-1.33,1.33M1174.66,465.33c0,.67.67,1.33,1.33,1.33.8,0,1.33-.67,1.33-1.33,0-.8-.53-1.33-1.33-1.33-.74,0-1.33.6-1.33,1.33M899.33,466.8c-.53.8-.67,1.73-.27,2.13.93.93,3.6-.8,3.6-2.4s-2.27-1.6-3.33.27M967.33,466.67c-.4.67.13,1.33,1.2,1.33,1.2,0,2.13-.67,2.13-1.33,0-.8-.53-1.33-1.2-1.33-.8,0-1.73.53-2.13,1.33M1135.33,466.67c.53.8,1.47,1.07,2.13.67,1.87-1.2,1.47-2-.93-2-1.07,0-1.6.67-1.2,1.33M957.33,468.67c0,2.67,1.33,3.07,4.67,1.47,4.4-2,4.13-3.33-.67-3.2-2.13.13-4,.8-4,1.73M886.66,469.33c-1.07.67-1.33,1.33-.67,1.33.8,0,2.27-.67,3.33-1.33s1.47-1.33.67-1.33c-.67,0-2.27.67-3.33,1.33M934.53,470.13c-.8.93-.8,2-.13,2.4,1.87,1.2,6.93-.67,6.93-2.67,0-2.13-4.93-1.87-6.8.27M946.66,469.33c0,.67,1.2,1.33,2.67,1.33s2.67-.67,2.67-1.33c0-.8-1.2-1.33-2.67-1.33s-2.67.53-2.67,1.33M1167.33,469.2c-.8,1.47,1.2,3.07,2.53,1.87,1.2-1.2.93-3.07-.4-3.07-.8,0-1.6.53-2.13,1.2M913.2,472.4c-2.13,1.2-4.4,1.47-6.4.67-1.73-.53-4-.53-5.47.27-1.33.67-4.67,1.2-7.6.93-3.73-.13-5.07.27-5.07,1.73,0,1.6,1.73,2,8,2,4.4,0,8.93-.4,10.13-.93,1.07-.53,5.07-1.2,8.67-1.6,11.2-1.33,14.4-2.27,12.4-3.6-2.8-1.73-10.8-1.47-14.67.53M996.13,472c-.93.53-1.6,1.73-1.33,2.53.4,1.07,1.33,1.07,3.07-.27,2.8-2,1.2-4.13-1.73-2.27M1012,472.13c0,.67.67.93,1.33.53.8-.4,1.33-1.07,1.33-1.47,0-.27-.53-.53-1.33-.53-.67,0-1.33.67-1.33,1.47M865.33,473.33c0,.67.67,1.33,1.33,1.33.8,0,1.33-.67,1.33-1.33,0-.8-.53-1.33-1.33-1.33-.74,0-1.33.6-1.33,1.33M967.33,474.53c-1.33,2.27,1.47,2.8,4.13.8q2.4-1.87-.4-2c-1.6,0-3.2.53-3.73,1.2M1158,474.67c-.4.67.13,1.33,1.2,1.33,1.2,0,2.13-.67,2.13-1.33,0-.8-.53-1.33-1.2-1.33-.8,0-1.73.53-2.13,1.33M984.66,476c-.4.67-.27,1.33.53,1.33.67,0,1.73-.67,2.13-1.33.4-.8.27-1.33-.53-1.33-.67,0-1.73.53-2.13,1.33M852,477.33c0,.67.67,1.33,1.33,1.33.8,0,1.33-.67,1.33-1.33,0-.8-.53-1.33-1.33-1.33-.74,0-1.33.6-1.33,1.33M1003.73,480c-.8,5.2-.13,5.73,3.33,2.53,1.47-1.33,3.6-2.4,4.67-2.27,1.07.27,2.27-.4,2.67-1.47.4-1.33-.27-1.73-2.93-1.2-1.87.4-3.47.13-3.47-.4,0-.67-.8-1.2-1.87-1.2s-2.13,1.73-2.4,4M1150,477.33c-.4.67-.13,1.33.53,1.33.8,0,1.47-.67,1.47-1.33,0-.8-.27-1.33-.53-1.33-.4,0-1.07.53-1.47,1.33M875.46,478.27c-.4.53-1.87,1.07-2.93,1.2-4.53.67-6.4,1.87-4.93,3.33,1.07,1.07,2.8,1.07,6,0,2.4-.8,6-1.73,8.13-2.13,2-.4,3.6-1.33,3.6-2,0-1.47-8.4-1.87-9.87-.4M933.33,478.67c0,.67.67,1.33,1.33,1.33.8,0,1.33-.67,1.33-1.33,0-.8-.53-1.33-1.33-1.33-.74,0-1.33.6-1.33,1.33M939.73,478.27c.8.27,2.4.27,3.33,0,.8-.4.13-.67-1.73-.67s-2.53.27-1.6.67M1023.33,478.67c-.4.67.13,1.33,1.2,1.33,1.2,0,2.13-.67,2.13-1.33,0-.8-.53-1.33-1.2-1.33-.8,0-1.73.53-2.13,1.33M1145.33,478.8c0,.67.67.93,1.33.53.8-.4,1.33-1.07,1.33-1.47,0-.27-.53-.53-1.33-.53-.67,0-1.33.67-1.33,1.47M1018,480c-.4.67-.13,1.33.53,1.33.8,0,1.47-.67,1.47-1.33,0-.8-.27-1.33-.53-1.33-.4,0-1.07.53-1.47,1.33M1041.33,480c0,.67.67,1.33,1.33,1.33.8,0,1.33-.67,1.33-1.33,0-.8-.53-1.33-1.33-1.33-.74,0-1.33.6-1.33,1.33M1130,480c-1.07,1.73,6,1.73,8.67,0,1.47-.93.8-1.33-2.93-1.33-2.67,0-5.33.53-5.73,1.33M971.33,481.33c.4.67,1.07,1.33,1.47,1.33.27,0,.53-.67.53-1.33,0-.8-.67-1.33-1.47-1.33-.67,0-.93.53-.53,1.33M986,481.33c-.4.8.13.93,1.2.53,2.4-.93,2.8-1.87.93-1.87-.8,0-1.73.53-2.13,1.33M1046.66,481.47c0,.67.67.93,1.33.53.8-.4,1.33-1.07,1.33-1.47,0-.27-.53-.53-1.33-.53-.67,0-1.33.67-1.33,1.47M1103.73,480.93c.8.27,2.4.27,3.33,0,.8-.4.13-.67-1.73-.67s-2.53.27-1.6.67M1110.66,481.33c0,.67.93,1.33,2,1.33s2-.67,2-1.33c0-.8-.93-1.33-2-1.33s-2,.53-2,1.33M1118.66,481.33c0,.67.67,1.33,1.47,1.33.67,0,.93-.67.53-1.33-.4-.8-1.07-1.33-1.47-1.33-.27,0-.53.53-.53,1.33M1123.33,481.33c-1.07,1.73.67,1.73,3.33,0,1.73-1.07,1.73-1.33-.27-1.33-1.2,0-2.67.53-3.07,1.33M978.66,482.53c0,.8-.93,1.07-2,.67-1.33-.53-2,0-2,1.6,0,1.2.4,1.87.93,1.47.4-.53,1.6-.27,2.53.53,2,1.6,5.87.67,5.87-1.33,0-.8-1.2-2-2.67-2.8-1.73-.93-2.67-.93-2.67-.13M858,483.87c-.93,1.6,4.13,3.33,6,2.13.67-.4,1.33-1.33,1.33-2.13,0-1.6-6.27-1.6-7.33,0M957.33,484c0,.67.93,1.33,2.13,1.33,1.07,0,1.6-.67,1.2-1.33-.4-.8-1.33-1.33-2.13-1.33-.67,0-1.2.53-1.2,1.33M964,483.47c0,1.33,8,4.4,8.67,3.33.4-.67,0-1.73-.8-2.27-1.73-1.07-7.87-1.87-7.87-1.07M846.67,486.67c-1.87.53-7.2,2-12,3.33-4.8,1.2-12.13,3.33-16.27,4.67s-8.8,2.13-10.13,1.73c-2.93-.67-5.2,1.87-3.33,3.73.8.8,3.47.53,6.93-.8,3.2-1.07,7.2-2,9.07-2,1.73,0,4.67-.93,6.4-2.13,1.87-1.2,4.53-1.87,5.87-1.47,1.47.4,3.87-.27,5.47-1.33,1.6-1.2,4.53-2,6.4-2,3.47,0,10.93-3.07,10.93-4.4,0-.93-5.6-.53-9.33.67M898,489.33c-.4.67-.13,1.33.53,1.33.8,0,1.47-.67,1.47-1.33,0-.8-.27-1.33-.53-1.33-.4,0-1.07.53-1.47,1.33M950.66,489.33c0,.67.67,1.33,1.33,1.33.8,0,1.33-.67,1.33-1.33,0-.8-.53-1.33-1.33-1.33-.74,0-1.33.6-1.33,1.33M946.66,490.8c0,.67.67.93,1.33.53.8-.4,1.33-1.07,1.33-1.47,0-.27-.53-.53-1.33-.53-.67,0-1.33.67-1.33,1.47M961.06,490.27c.93.4,2.13.27,2.53-.13.53-.4-.27-.8-1.73-.67-1.47,0-1.87.4-.8.8M1083.73,494.93c.8.8,1.6,2.67,1.6,4,0,3.33,2.27,2.93,3.2-.53.53-2.4,1.07-2.67,2.4-1.33.8.8,2.67,1.6,4,1.6s2.4.67,2.4,1.47c0,.93-1.33,1.2-3.33.67-1.87-.53-3.33-.27-3.33.4s1.47,1.6,3.33,2c1.87.53,3.33,1.47,3.33,2.13,0,.8,1.2,1.33,2.67,1.33,1.33,0,3.07,1.07,3.87,2.27,1.2,2.27,1.33,2.27,2.13,0,.93-2.13,1.2-2,3.87.8,3.33,3.6,6.67,2.93,7.07-1.47.53-4-5.07-6.93-8.27-4.27-1.73,1.47-2,1.2-1.73-1.33.4-2.67-.67-3.6-6.27-5.73-8.27-3.07-19.47-4.53-16.93-2M1101.33,502.67c0,.67-.53,1.33-1.33,1.33-.67,0-1.33-.67-1.33-1.33,0-.8.67-1.33,1.33-1.33.8,0,1.33.53,1.33,1.33M876,496.13c0,.67.67.93,1.33.53.8-.4,1.33-1.07,1.33-1.47,0-.27-.53-.53-1.33-.53-.67,0-1.33.67-1.33,1.47M1053.33,497.33c0,.67.67,1.33,1.33,1.33.8,0,1.33-.67,1.33-1.33,0-.8-.53-1.33-1.33-1.33-.74,0-1.33.6-1.33,1.33M1070.66,497.87c0,1.2.67,2.13,1.33,2.13.8,0,1.33-.53,1.33-1.2,0-.8-.53-1.73-1.33-2.13-.67-.4-1.33.13-1.33,1.2M1079.2,497.47c-.4.8-.13,2.13.67,2.93,1.07,1.07,1.47.67,1.47-1.47,0-3.2-.67-3.73-2.13-1.47M885.33,498.67c0,.67.93,1.33,2,1.33s2-.67,2-1.33c0-.8-.93-1.33-2-1.33s-2,.53-2,1.33M896,499.47c0,1.2.67,1.87,1.6,1.6,2.4-.8,2.8-3.73.53-3.73-1.2,0-2.13.93-2.13,2.13M922.13,498.53c-.53.93-.67,2-.27,2.4,1.2,1.2,2.53-.53,1.87-2.4-.53-1.47-.8-1.47-1.6,0M1033.33,498.67c0,.67.67,1.33,1.33,1.33.8,0,1.33-.67,1.33-1.33,0-.8-.53-1.33-1.33-1.33-.74,0-1.33.6-1.33,1.33M1044.66,498.67c.4.67,1.07,1.33,1.47,1.33.27,0,.53-.67.53-1.33,0-.8-.67-1.33-1.47-1.33-.67,0-.93.53-.53,1.33M1062.93,500.67c.13,1.87.67,3.33,1.2,3.33s.93-1.47.93-3.33-.53-3.33-1.2-3.33-1.07,1.47-.93,3.33M767.33,500c-.4.67.13,1.33,1.2,1.33,1.2,0,2.13-.67,2.13-1.33,0-.8-.53-1.33-1.2-1.33-.8,0-1.73.53-2.13,1.33M793.33,499.6c-1.87.4-4,1.2-4.8,1.87-.67.53-2.53.8-4,.4-1.33-.4-3.73.27-5.2,1.47-2.53,2-2.4,2.13,3.33,1.33,3.33-.53,8.93-1.33,12.53-1.73,3.6-.53,6.8-1.73,7.2-2.67.53-1.6-2.4-1.87-9.07-.67M748.67,502.8c-1.33,2,.13,3.07,2.67,2,1.2-.4,1.73-1.33,1.33-2.13-1.07-1.73-2.93-1.73-4,.13M758.67,502.67c0,.67.93.93,2,.53,1.07-.53,2-1.07,2-1.33s-.93-.53-2-.53-2,.53-2,1.33M1053.33,503.47c0,1.07.67,1.6,1.33,1.2.8-.4,1.33-1.33,1.33-2.13,0-.67-.53-1.2-1.33-1.2-.67,0-1.33.93-1.33,2.13M1009.33,504c0,.67.53,1.33,1.2,1.33.8,0,1.73-.67,2.13-1.33.4-.8-.13-1.33-1.2-1.33-1.2,0-2.13.53-2.13,1.33M1073.33,504c0,.67.93,1.33,2,1.33s2-.67,2-1.33c0-.8-.93-1.33-2-1.33s-2,.53-2,1.33M1084,504c0,.67.67,1.33,1.33,1.33.8,0,1.33-.67,1.33-1.33,0-.8-.53-1.33-1.33-1.33-.74,0-1.33.6-1.33,1.33M736.13,506.27c-2.13,2.4-1.87,2.93,1.6,2.53,3.6-.4,6.27-1.87,6.27-3.47s-6.13-.93-7.87.93M771.07,504.93c-1.73.27-3.07,1.2-3.07,2s1.33,1.07,3.07.53c1.6-.4,3.33-.8,4-.8.53,0,.93-.67.93-1.33,0-.8-.4-1.2-.93-1.2-.67.13-2.4.53-4,.8M924,506.13c0,1.2.67,1.87,1.6,1.6,2.4-.8,2.8-3.73.53-3.73-1.2,0-2.13.93-2.13,2.13"/>
  <path d="M1090.66,505.33c0,.53,1.2,1.33,2.67,1.73s2.67.27,2.67-.4c0-.53-1.2-1.33-2.67-1.73s-2.67-.27-2.67.4M810.66,507.33c-.93,1.07-2.53,2-3.47,2-1.07,0-1.87.4-1.87.93,0,.67,2.53,1.07,5.6,1.2,3.07,0,4.93-.13,4.13-.4s-1.2-1.73-.8-3.07c.8-3.2-1.2-3.47-3.6-.67M822.8,507.47c-4.27,3.07-3.33,4.13,2.93,3.87q7.6-.53,7.6-1.87c0-.67-1.33-.93-2.93-.4-1.73.4-2.53.13-2-.67,1.47-2.4-2.53-2.93-5.6-.93M998.66,506.67c0,.67.53,1.33,1.2,1.33.8,0,1.73-.67,2.13-1.33.4-.8-.13-1.33-1.2-1.33-1.2,0-2.13.53-2.13,1.33M1080,507.33c0,1.07.67,2,1.33,2,.8,0,1.33-.93,1.33-2s-.53-2-1.33-2c-.67,0-1.33.93-1.33,2M854.26,507.47c-1.07,1.07.13,3.2,1.87,3.2.67,0,1.2-.93,1.2-2,0-2-1.6-2.67-3.07-1.2M900.13,507.87c-2.4,1.6-.4,4.53,2.53,3.73,1.2-.27,3.07-.13,4.13.4,2.27,1.2,15.33-.27,14.93-1.73-.27-.53-.67-.8-1.07-.67-.4.27-1.33-.53-2.13-1.6-1.07-1.73-1.47-1.73-2.67.4-.8,1.33-2,1.87-2.93,1.33-.8-.53-2.4-1.07-3.6-1.07-1.07-.13-3.2-.67-4.67-1.07-1.47-.53-3.47-.4-4.53.27M1048,508c0,.67.67,1.33,1.33,1.33.8,0,1.33-.67,1.33-1.33,0-.8-.53-1.33-1.33-1.33-.74,0-1.33.6-1.33,1.33M1065.6,508.13c.4,1.07,1.07,1.73,1.47,1.47,1.2-.4.93-1.47-.67-2.4-.8-.53-1.07,0-.8.93M1118.66,507.73c0,1.6,4.53,5.6,6.4,5.6,2.8,0,1.73-2-2.4-4.4-2.13-1.33-4-1.87-4-1.2M724,508.93c0,.93-.93,1.73-2,1.73-1.2,0-1.6.8-1.2,2,.53,1.07,1.6,2,2.53,2,2.27,0,3.33-3.07,1.87-5.47-.8-1.33-1.2-1.33-1.2-.27M728,510c0,1.07.93,2,2,2s2-.93,2-2-.93-2-2-2-2,.93-2,2M756.67,509.33c-.4.67.4,1.33,1.87,1.33s3.07-.67,3.47-1.33c.4-.8-.4-1.33-1.87-1.33s-3.07.53-3.47,1.33M795.33,509.47c-1.33,2,.4,3.33,2.13,1.6.93-.93.93-1.73.13-2.27-.8-.4-1.87-.13-2.27.67M843.33,509.33c.4.67,1.73,1.33,2.8,1.33s1.87-.67,1.87-1.33c0-.8-1.2-1.33-2.8-1.33-1.47,0-2.27.53-1.87,1.33M866.66,509.33c0,.67.93,1.33,2,1.33s2-.67,2-1.33c0-.8-.93-1.33-2-1.33s-2,.53-2,1.33M1098.66,509.33c0,.67.67,1.33,1.47,1.33.67,0,.93-.67.53-1.33-.4-.8-1.07-1.33-1.47-1.33-.27,0-.53.53-.53,1.33M893.33,511.33c0,1.2.8,1.6,2,1.2,1.07-.53,2-1.33,2-2s-.93-1.2-2-1.2-2,.93-2,2M744.67,512c-.4.67-.4,2,.13,2.8.8,1.47,3.07-.8,3.2-3.2,0-1.33-2.4-1.2-3.33.4M782.66,512.8c0,1.2.67,1.87,1.6,1.6,2.4-.8,2.8-3.73.53-3.73-1.2,0-2.13.93-2.13,2.13M877.33,512.8c0,1.07.67,1.6,1.33,1.2.8-.4,1.33-1.33,1.33-2.13,0-.67-.53-1.2-1.33-1.2-.67,0-1.33.93-1.33,2.13M883.33,512c-2.4.93-2.4,1.07,1.07,2,4,1.07,5.73.27,4.27-1.87-.93-1.73-1.6-1.73-5.33-.13M1010.66,512c0,.67.67,1.33,1.33,1.33.8,0,1.33-.67,1.33-1.33,0-.8-.53-1.33-1.33-1.33-.74,0-1.33.6-1.33,1.33M770,513.2c-.93,1.6,1.6,3.2,3.33,2.13,1.47-.93.53-3.33-1.33-3.33-.67,0-1.47.53-2,1.2M1118.8,513.6c-.13,1.47-.8,2-2.13,1.6-1.07-.53-2-.13-2,.8,0,.8,1.33,1.33,3.07,1.07,2.27-.27,2.8.13,2.53,2.13-.4,2.27-.27,2.4,1.6.4,2.67-2.53,2.8-4.93.27-4.93-1.07,0-2.27-.8-2.53-1.73-.4-.93-.8-.67-.8.67M735.33,514.67c-.4.67-.13,1.33.53,1.33.8,0,1.47-.67,1.47-1.33,0-.8-.27-1.33-.53-1.33-.4,0-1.07.53-1.47,1.33M901.33,514.67c-1.73,1.07-1.6,1.33.4,1.33,1.2,0,2.27-.67,2.27-1.33,0-1.6-.13-1.6-2.67,0M914.66,514.8c0,.67.67.93,1.33.53.8-.4,1.33-1.07,1.33-1.47,0-.27-.53-.53-1.33-.53-.67,0-1.33.67-1.33,1.47M1040.93,514.27c-1.6,1.47-1.07,3.07,1.07,3.07,1.07,0,2-.93,2-2,0-2.13-1.6-2.67-3.07-1.07M1050.66,514.67c0,.67.67,1.33,1.33,1.33.8,0,1.33-.67,1.33-1.33,0-.8-.53-1.33-1.33-1.33-.74,0-1.33.6-1.33,1.33M1128.93,514.13c-1.2,1.33-1.2,5.87.13,5.87.53,0,1.87-.67,2.93-1.33,1.73-1.07,1.73-1.47-.13-3.33-1.07-1.07-2.4-1.6-2.93-1.2M1058.53,516c-.53,3.33-.4,4,.8,4,.8,0,1.33-.4,1.33-1.07,0-.53.53-1.73,1.07-2.67.67-1.07.4-1.6-.93-1.6-1.2,0-2.27.53-2.27,1.33M1105.33,516c0,.67.67,1.33,1.33,1.33.8,0,1.33-.67,1.33-1.33,0-.8-.53-1.33-1.33-1.33-.74,0-1.33.6-1.33,1.33M730.13,517.2c-.53.67-.27,1.6.4,2,.67.53,1.6.27,2-.4.53-.67.27-1.6-.4-2-.67-.53-1.6-.27-2,.4M1019.06,517.6c.27.93.93,1.73,1.6,1.73s1.33-.8,1.73-1.73c.27-.8-.53-1.6-1.73-1.6s-2,.8-1.6,1.6M1064.8,518.27c-1.07,2.67-.4,3.33,2.27,2.27,3.07-1.07,3.73-4,.93-4.13-1.33-.13-2.8.67-3.2,1.87M1072.93,518.27c-1.73,1.6-.93,3.07,1.73,3.07,1.47,0,2.67-.93,2.67-2,0-2-2.8-2.8-4.4-1.07M750.66,520c0,.67.67,1.33,1.33,1.33.8,0,1.33-.67,1.33-1.33,0-.8-.53-1.33-1.33-1.33-.74,0-1.33.6-1.33,1.33M1034.66,520.67c-.93,1.07-1.33,2.53-.8,2.93,1.07,1.07,5.07-1.2,4.8-2.67-.67-2.13-2.4-2.27-4-.27M1044.53,520.13c-.67,1.07,4.93,2.27,7.2,1.47.93-.27,1.6-1.07,1.6-1.6,0-1.33-8-1.2-8.8.13M997.33,522.13c0,1.07.67,1.6,1.33,1.2.8-.4,1.33-1.33,1.33-2.13,0-.67-.53-1.2-1.33-1.2-.67,0-1.33.93-1.33,2.13M1024.4,522c-.4,1.2-.4,2.53.13,2.93.93.93,4.8-2.13,4.8-3.73,0-2-4-1.33-4.93.8M1086.66,521.33c0,.67.67,1.33,1.33,1.33.8,0,1.33-.67,1.33-1.33,0-.8-.53-1.33-1.33-1.33-.74,0-1.33.6-1.33,1.33M731.73,522.93c1.2,1.2,2,1.2,3.2,0s.93-1.6-1.6-1.6-2.8.4-1.6,1.6M1127.33,522.67c.4.67,1.33,1.33,2.13,1.33.67,0,1.2-.67,1.2-1.33,0-.8-.93-1.33-2.13-1.33-1.07,0-1.6.53-1.2,1.33M1136,522.53c0,.8.53,1.6,1.33,2.13.67.4.93,1.6.4,2.67-.4,1.33.27,2,2.13,2,3.47,0,3.6-2.8.4-5.73-2.8-2.53-4.27-2.93-4.27-1.07M1098,524c.4.67,1.07,1.33,1.47,1.33.27,0,.53-.67.53-1.33,0-.8-.67-1.33-1.47-1.33-.67,0-.93.53-.53,1.33M1123.33,525.33c-1.07,1.73.53,4.27,2.13,3.33,1.6-1.07,1.6-4.67,0-4.67-.8,0-1.73.53-2.13,1.33M1133.33,525.87c0,1.2.67,2.13,1.33,2.13.8,0,1.33-.53,1.33-1.2,0-.8-.53-1.73-1.33-2.13-.67-.4-1.33.13-1.33,1.2M975.46,526.27c-1.47,1.47-.8,3.07,1.2,3.07,1.07,0,2-.53,2-1.2,0-1.73-2.13-2.93-3.2-1.87M1006.66,526.67c0,.67.53,1.33,1.2,1.33.8,0,1.73-.67,2.13-1.33.4-.8-.13-1.33-1.2-1.33-1.2,0-2.13.53-2.13,1.33M1108,526.67c0,.67.67,1.33,1.33,1.33.8,0,1.33-.67,1.33-1.33,0-.8-.53-1.33-1.33-1.33-.74,0-1.33.6-1.33,1.33M999.46,528.67c-.4,1.2,0,2,1.2,2,1.07,0,2-.93,2-2s-.53-2-1.2-2-1.47.93-2,2M957.33,529.33c0,.67.67,1.33,1.33,1.33.8,0,1.33-.67,1.33-1.33,0-.8-.53-1.33-1.33-1.33-.74,0-1.33.6-1.33,1.33M1114.66,530c0,1.07.67,2,1.33,2,.8,0,1.33-.93,1.33-2s-.53-2-1.33-2c-.67,0-1.33.93-1.33,2M941.33,530.8c0,.67.67.93,1.33.53.8-.4,1.33-1.07,1.33-1.47,0-.27-.53-.53-1.33-.53-.67,0-1.33.67-1.33,1.47M966.66,531.47c0,1.07.67,1.6,1.33,1.2.8-.4,1.33-1.33,1.33-2.13,0-.67-.53-1.2-1.33-1.2-.67,0-1.33.93-1.33,2.13M991.6,530.27c-1.6,1.47-1.07,3.07,1.07,3.07,1.07,0,2-.93,2-2,0-2.13-1.6-2.67-3.07-1.07M950,532c-.4.67-.13,1.33.53,1.33.8,0,1.47-.67,1.47-1.33,0-.8-.27-1.33-.53-1.33-.4,0-1.07.53-1.47,1.33M979.6,533.33c-2.53,3.07-2.93,5.33-.93,5.33.8,0,1.33-.8,1.33-1.87,0-2.53,4.27-4,5.47-1.87.93,1.33,1.47,1.33,2.8,0,1.2-1.2,1.2-1.6-.67-1.6-1.2,0-2.27-.67-2.27-1.33,0-2.27-3.33-1.47-5.73,1.33M1132.4,532.93c1.2,1.2,3.07,1.73,4.4,1.2,2.93-1.07,1.6-2.53-3.07-2.93-3.2-.4-3.33-.27-1.33,1.73M1141.33,531.87c0,.67.93,1.87,2,2.8,1.73,1.33,2,1.2,2-1.2,0-1.6-.8-2.8-2-2.8-1.07,0-2,.53-2,1.2M972,533.33c0,.67.93,1.33,2.13,1.33,1.07,0,1.6-.67,1.2-1.33-.4-.8-1.33-1.33-2.13-1.33-.67,0-1.2.53-1.2,1.33M958.66,538c0,1.07,1.2,2,2.67,2s2.67-.93,2.67-2-1.2-2-2.67-2-2.67.93-2.67,2M969.33,538.13c0,1.2.67,1.87,1.6,1.6,2.4-.8,2.8-3.73.53-3.73-1.2,0-2.13.93-2.13,2.13M1048.93,538.4c-1.47,2.13-.4,10.93,1.2,10.93,2.27,0,3.6-2.27,1.73-2.93-1.2-.4-1.2-1.2,0-3.33.8-1.6,1.47-3.47,1.47-4.27,0-1.6-3.47-2-4.4-.4M1056,538.53c0,.67,2.4,1.2,5.33,1.2,3.07.13,5.07-.4,4.67-1.2-1.07-1.6-10-1.6-10,0M1068.66,538.67c-.53.8.8,1.33,2.93,1.33,2.93,0,3.33-.27,1.73-1.33-2.53-1.6-3.6-1.6-4.67,0M1144,538.67c0,.67.67,1.33,1.33,1.33.8,0,1.33-.67,1.33-1.33,0-.8-.53-1.33-1.33-1.33-.74,0-1.33.6-1.33,1.33M1040,539.6c-9.87,3.2-19.73,11.2-10.27,8.27,2.4-.8,5.33-2,6.67-2.67,3.47-1.87,6,.13,2.93,2.27-3.07,2.27-2.13,3.33,1.87,2.27,1.6-.4,2.67-1.47,2.4-2.27-.4-.93.13-2.67,1.2-4.13,1.07-1.33,1.87-2.93,1.87-3.6,0-1.2-3.47-1.2-6.67-.13M1077.6,540.13c.27.93,1.33,2,2.27,2.27,1.07.4,1.6-.13,1.2-1.2-.27-.93-1.33-2-2.27-2.27-1.07-.4-1.6.13-1.2,1.2M1086.93,542.8c.4,1.07,1.07,1.73,1.47,1.47,1.2-.4.93-1.47-.67-2.4-.8-.53-1.07,0-.8.93M1144,544.8c0,1.07.67,1.6,1.33,1.2.8-.4,1.33-1.33,1.33-2.13,0-.67-.53-1.2-1.33-1.2-.67,0-1.33.93-1.33,2.13M1056,546.67c0,.67.67,1.33,1.33,1.33.8,0,1.33-.67,1.33-1.33,0-.8-.53-1.33-1.33-1.33-.74,0-1.33.6-1.33,1.33M1096,548c0,.67.93,1.33,2.13,1.33,1.07,0,1.6-.67,1.2-1.33-.4-.8-1.33-1.33-2.13-1.33-.67,0-1.2.53-1.2,1.33"/>
  <path d="M1033.33,549.33c0,.8-.53,1.2-1.33.67-.67-.4-2.27-.13-3.6.53s-3.47,1.6-4.67,2c-1.33.4-2.4,1.33-2.4,2.13,0,1.87,3.47,1.6,5.6-.4.93-1.07,2.53-1.6,3.47-1.33,2.13.8,6.13-3.2,4.27-4.27-.67-.4-1.33-.13-1.33.67M1062.66,551.47c0,1.07.67,1.6,1.33,1.2.8-.4,1.33-1.33,1.33-2.13,0-.67-.53-1.2-1.33-1.2-.67,0-1.33.93-1.33,2.13M1140.93,551.6c-.53.4-.93,1.47-.93,2.27s.67.67,1.6-.27c.8-.8,1.2-1.87.93-2.27-.4-.4-1.2-.27-1.6.27M1044,554.67c0,.67.67,1.33,1.47,1.33.67,0,.93-.67.53-1.33-.4-.8-1.07-1.33-1.47-1.33-.27,0-.53.53-.53,1.33M1089.33,555.47c0,1.07.67,1.6,1.33,1.2.8-.53,1.07-1.47.67-2.13-1.2-1.87-2-1.47-2,.93M1104,554.67c0,.67.93,1.33,2,1.33s2-.67,2-1.33c0-.8-.93-1.33-2-1.33s-2,.53-2,1.33M1037.33,556.13c0,.67.67.93,1.33.53.8-.4,1.33-1.07,1.33-1.47,0-.27-.53-.53-1.33-.53-.67,0-1.33.67-1.33,1.47M1110.13,558.4c-.4.8-.13,1.87.67,2.27,2,1.33,3.33-.4,1.6-2.13-.93-.93-1.73-.93-2.27-.13M1135.33,558.8c-.53.8-.67,1.73-.27,2.13.93.93,3.6-.8,3.6-2.4s-2.27-1.6-3.33.27M1020.8,559.87c-.4.67.8,1.07,2.53,1.07,1.87,0,3.33-.4,3.33-1.07s-1.2-1.2-2.53-1.2c-1.47,0-2.93.53-3.33,1.2M1129.33,565.33c-1.07.67-1.47,1.6-.93,2.13s2,0,3.2-1.2c2.4-2.4,1.07-3.07-2.27-.93M980,571.33c0,1.07.67,2,1.33,2,.8,0,1.33-.93,1.33-2s-.53-2-1.33-2c-.67,0-1.33.93-1.33,2M1123.06,570.67c-1.73.67-3.07,1.87-3.07,2.67,0,2.13,2,1.6,4.67-1.33s2.67-3.07-1.6-1.33M985.33,573.33c0,.67.67,1.33,1.33,1.33.8,0,1.33-.67,1.33-1.33,0-.8-.53-1.33-1.33-1.33-.74,0-1.33.6-1.33,1.33M986,578.67c-.53.8.53,1.33,2.53,1.33h4.13c.4,0,.8-.4,1.07-.93.53-1.47-6.8-1.87-7.73-.4M1027.06,579.33c-.93,2.67.27,3.87,2.8,2.93,1.2-.53,1.73-1.73,1.33-2.93-1.07-2.53-3.07-2.53-4.13,0M1114,578.8c-1.33,2,.4,3.33,2.13,1.6.93-.93.93-1.73.13-2.27-.8-.4-1.87-.13-2.27.67M754.93,580.8c-1.87,2.13-.67,2.4,2.27.67.93-.67,1.2-1.47.67-1.87-.67-.4-2,.13-2.93,1.2M931.73,581.87c-.53,2.53,0,3.33,2.53,3.87,2,.4,3.07,0,3.07-1.2,0-1.07.93-1.87,2-1.87s2-.93,2-2c0-2.4-3.6-2.67-4.4-.4-.4,1.33-.93,1.33-2.53,0-1.73-1.33-2.13-1.2-2.67,1.6M1034.66,580.67c0,1.87,1.6,2.67,4.53,2.13.53-.13,1.87.4,2.93,1.33,1.33,1.07,2.27.93,3.87-.53,3.07-3.07,2.4-4-2-3.33-2.27.4-4.4.13-4.8-.53-1.2-1.87-4.53-1.2-4.53.93M1049.33,579.6c0,2.27,2.53,4.67,3.87,3.87.8-.53,1.47-.13,1.47.93,0,1.87,2.67,3.6,5.47,3.6.67,0,1.2-.93,1.2-2s-.67-2-1.6-2c-.8,0-1.2-.4-.67-.8.4-.53,2.4.4,4.4,2,4.4,3.47,7.47,3.73,6.27.53-.8-2-.67-2.13,1.2-.4,1.2,1.07,1.73,2.27,1.2,2.67-.4.4-.93,2-1.2,3.6-.4,2.53.27,3.07,2.93,3.07,3.6,0,5.47-1.87,4.13-4.13-.67-.8-1.6-.53-2.8,1.07-1.87,2.53-2.53.93-1.07-2.8.53-1.47,1.73-1.87,4.13-1.33,4.53,1.2,3.47-2.4-1.07-3.73-1.73-.4-6.4-1.73-10.4-2.93-5.2-1.47-7.87-1.6-9.87-.67-1.73,1.07-2.93,1.07-4,0-1.73-1.73-3.6-1.87-3.6-.53M948,581.33c0,.67.67,1.33,1.33,1.33.8,0,1.33-.67,1.33-1.33,0-.8-.53-1.33-1.33-1.33-.74,0-1.33.6-1.33,1.33M955.46,581.07c-.4.8-.13,1.87.67,2.27,2,1.33,3.33-.4,1.6-2.13-.93-.93-1.73-.93-2.27-.13M1003.33,582.67c-.93,1.6.27,4,2.13,4,1.6,0,1.6-3.6,0-4.67-.67-.4-1.6-.13-2.13.67M1009.33,583.47c0,2.27,2.93,1.87,3.73-.53.27-.93-.4-1.6-1.6-1.6s-2.13.93-2.13,2.13M828,584c0,.67.67,1.33,1.47,1.33.67,0,.93-.67.53-1.33-.4-.8-1.07-1.33-1.47-1.33-.27,0-.53.53-.53,1.33M997.33,584.13c0,.67.67.93,1.33.53.8-.4,1.33-1.07,1.33-1.47,0-.27-.53-.53-1.33-.53-.67,0-1.33.67-1.33,1.47M1107.6,585.6c-1.33,1.47-2.27,2.93-2,3.2.4.27,2-.93,3.73-2.8s2.53-3.33,1.87-3.2c-.67,0-2.27,1.33-3.6,2.8M748.66,585.2c-1.33,2.4,2,2.93,4.93.93l2.93-2.13h-3.47c-2,0-3.87.53-4.4,1.2M938.66,585.33c0,.67.67,1.33,1.47,1.33s2.27.93,3.33,2c2.4,2.27,4.53,2.67,4.53.67,0-.8-.93-1.33-2-1.33-1.2,0-2.4-.93-2.8-2-.93-2.27-4.53-2.8-4.53-.67M757.33,586.53c0,2.27,2.4,2.8,3.2.8.4-1.2,0-2-1.2-2-1.07,0-2,.53-2,1.2M764,586.67c0,.67.67,1.33,1.33,1.33.8,0,1.33-.67,1.33-1.33,0-.8-.53-1.33-1.33-1.33-.74,0-1.33.6-1.33,1.33M770.67,586.67c0,.67,1.2,1.33,2.8,1.33,1.47,0,2.27-.67,1.87-1.33-.4-.8-1.73-1.33-2.8-1.33s-1.87.53-1.87,1.33M777.33,586.67c0,.67.67,1.33,1.33,1.33.8,0,1.33-.67,1.33-1.33,0-.8-.53-1.33-1.33-1.33-.74,0-1.33.6-1.33,1.33M1025.73,586.93c.27.93.93,1.73,1.6,1.73s1.33-.8,1.73-1.73c.27-.8-.53-1.6-1.73-1.6s-2,.8-1.6,1.6M1031.33,586.67c-.4.67.4,1.33,1.87,1.33,1.6,0,2.8-.67,2.8-1.33,0-.8-.8-1.33-1.87-1.33s-2.4.53-2.8,1.33M1048.93,587.6c1.07,2.8,3.2,4.53,4.67,3.6,1.73-1.2,1.2-3.2-.93-3.2-1.07,0-2-.67-2-1.33,0-.8-.53-1.33-1.33-1.33-.67,0-.8,1.07-.4,2.27M782.66,588c0,.67.93,1.33,2,1.33s2-.67,2-1.33c0-.8-.93-1.33-2-1.33s-2,.53-2,1.33M937.33,589.33c0,.67.67,1.33,1.33,1.33.8,0,1.33-.67,1.33-1.33,0-.8-.53-1.33-1.33-1.33-.74,0-1.33.6-1.33,1.33"/>
  <path d="M1061.6,589.6c.8,2.4,3.73,2.8,3.73.53,0-1.2-.93-2.13-2.13-2.13s-1.87.67-1.6,1.6M794.66,591.33c-1.33,1.6-1.33,2,.53,2,1.2,0,2.13-.93,2.13-2s-.27-2-.53-2-1.2.93-2.13,2M1024.26,592.27c.93,1.73,1.87,3.33,2,3.6.13.13.93,0,1.73-.53,1.07-.67.67-1.73-1.2-3.47-3.6-3.33-4.53-3.2-2.53.4M1038.66,590.67c0,.67.93,1.33,2,1.33s2-.67,2-1.33c0-.8-.93-1.33-2-1.33s-2,.53-2,1.33M1082.4,590.8c-2.4,1.33-3.33,5.2-1.33,5.2.53,0,2.13-.93,3.47-2,3.2-2.4,1.33-5.2-2.13-3.2M839.33,592c-.4.67.13,1.33,1.33,1.33s1.73-.67,1.33-1.33c-.4-.8-1.07-1.33-1.33-1.33s-.93.53-1.33,1.33M1098,592c-.4.67.13,1.33,1.2,1.33,1.2,0,2.13-.67,2.13-1.33,0-.8-.53-1.33-1.2-1.33-.8,0-1.73.53-2.13,1.33M956,594.13c0,1.07.67,1.6,1.33,1.2.8-.4,1.33-1.33,1.33-2.13,0-.67-.53-1.2-1.33-1.2-.67,0-1.33.93-1.33,2.13M964,593.33c0,.67.67,1.33,1.47,1.33.67,0,.93-.67.53-1.33-.4-.8-1.07-1.33-1.47-1.33-.27,0-.53.53-.53,1.33M1015.46,593.2c-.53.67-.27,1.6.4,2,.67.53,1.6.27,2-.4.53-.67.27-1.6-.4-2-.67-.53-1.6-.27-2,.4M1030.66,594.67c0,.67.67,1.33,1.33,1.33.8,0,1.33-.67,1.33-1.33,0-.8-.53-1.33-1.33-1.33-.74,0-1.33.6-1.33,1.33M1037.33,595.2c0,1.2.67,2.13,1.33,2.13.8,0,1.33-.53,1.33-1.2,0-.8-.53-1.73-1.33-2.13-.67-.4-1.33.13-1.33,1.2M802.66,596.67c.93,1.07,2.13,1.6,2.8,1.2,1.73-1.07.13-3.2-2.4-3.2-1.73,0-1.73.4-.4,2M1049.33,596.67c0,1.07.67,2,1.33,2,.8,0,1.33.93,1.33,2s.67,2,1.33,2c.8,0,1.33-.93,1.33-2,0-2.4,2.13-2.67,3.07-.4.4.93.8,1.07.8.4,0-.8-.53-2.27-1.33-3.33-1.07-1.47-1.6-1.6-2.13-.4-.93,2.4-3.07,2.13-3.07-.27,0-1.07-.53-2-1.33-2-.67,0-1.33.93-1.33,2M836,597.07c0,.67,6.93,4.67,15.47,8.93,15.87,8,32,19.2,41.07,28.67,2.93,2.93,5.73,5.33,6.27,5.33.67,0,.8.93.4,2-1.07,2.8,1.87,6,5.33,5.73,1.47-.13,4.8.27,7.33.8,3.47.8,4.27.67,3.87-.67-.4-1.07-2.53-1.87-4.8-1.87-5.47,0-6-.67-6.8-10.4-.13-.53-1.07-.93-2.27-.93-2,0-6.53-3.6-6.53-5.2,0-.4-.8-.67-1.73-.53-1.07,0-3.47-1.6-5.47-3.73-2.13-2.13-4.13-3.87-4.67-3.87-1.33,0-13.33-8.27-13.87-9.6-.27-.53-1.33-1.07-2.27-1.07-1.07,0-8.27-3.33-16-7.33q-15.33-7.87-15.33-6.27M1077.33,597.33c0,.67.93,1.33,2.13,1.33,1.07,0,1.6-.67,1.2-1.33-.4-.8-1.33-1.33-2.13-1.33-.67,0-1.2.53-1.2,1.33M940,598.67c0,1.6,4.93,3.07,6.67,2,2.53-1.6,1.33-2.93-2.67-3.07-2.13,0-4,.4-4,1.07M1022.66,598.67c0,.67.67,1.33,1.33,1.33.8,0,1.33.93,1.33,2.13,0,1.07.53,1.6,1.33,1.2.8-.53.67-1.73-.4-3.33-1.73-2.8-3.6-3.47-3.6-1.33M1073.33,598.67c0,.67.67,1.33,1.33,1.33.8,0,1.33-.67,1.33-1.33,0-.8-.53-1.33-1.33-1.33-.74,0-1.33.6-1.33,1.33M769.33,600c0,.67.67,1.33,1.33,1.33.8,0,1.33-.67,1.33-1.33,0-.8-.53-1.33-1.33-1.33-.74,0-1.33.6-1.33,1.33M780.66,600c-.4.67-.13,1.33.53,1.33.8,0,1.47-.67,1.47-1.33,0-.8-.27-1.33-.53-1.33-.4,0-1.07.53-1.47,1.33M818,600c.4.67,1.07,1.33,1.47,1.33.27,0,.53-.67.53-1.33,0-.8-.67-1.33-1.47-1.33-.67,0-.93.53-.53,1.33M949.33,600.53c0,1.33,1.2,2.13,3.33,2.13,1.87,0,3.33-.67,3.33-1.33,0-.8-.53-1.33-1.2-1.33s-2.13-.4-3.33-.8c-1.47-.53-2.13-.13-2.13,1.33M1030,600c.4.67,1.07,1.33,1.47,1.33.27,0,.53-.67.53-1.33,0-.8-.67-1.33-1.47-1.33-.67,0-.93.53-.53,1.33M1044.4,601.2c-1.33,2-1.2,2.93.27,4.13,1.6,1.33,2.13,1.07,3.2-1.47,1.87-5.2-.67-7.2-3.47-2.67M1066.66,600c0,.67.67,1.33,1.33,1.33.8,0,1.33-.67,1.33-1.33,0-.8-.53-1.33-1.33-1.33-.74,0-1.33.6-1.33,1.33M786.4,600.93c.93.4,2.13.27,2.53-.13.53-.4-.27-.8-1.73-.67-1.47,0-1.87.4-.8.8M959.2,601.47c-.4.8-.13,2.13.67,2.93,1.2,1.2,1.87,1.07,2.8-.4.67-1.07,1.33-2.4,1.33-3.07,0-1.47-3.73-1.07-4.8.53M1034,601.2c-.4.67-.13,1.6.67,2.13.67.4,1.33-.13,1.33-1.2,0-2.4-.8-2.8-2-.93M1077.46,602.13c0,1.47.4,1.87.8.8.4-.93.27-2.13-.13-2.53-.4-.53-.8.27-.67,1.73M1080.66,601.33c.4.67,1.33,1.33,2.13,1.33.67,0,1.2-.67,1.2-1.33,0-.8-.93-1.33-2.13-1.33-1.07,0-1.6.53-1.2,1.33M965.33,604.67c0,1.07.67,2,1.33,2,.8,0,1.33-.93,1.33-2s-.53-2-1.33-2c-.67,0-1.33.93-1.33,2M970.53,605.2c.8,1.33,3.47,2.93,6.13,3.33,2.53.53,4.67,1.47,4.67,2.13,0,.8.67,1.33,1.47,1.33s3.07,1.2,5.2,2.67c4.67,3.33,5.87,2.13,3.07-2.8-1.92-3.3-5.27-5.52-9.07-6-.67,0-2.4-.67-3.87-1.2-1.6-.67-2.8-.4-3.47.8-.93,1.47-1.33,1.33-2.13-.53-.4-1.2-1.33-2.27-2-2.27-.8,0-.8,1.07,0,2.53M1057.33,604.8c0,2.27,4.93,3.2,6.67,1.2,1.07-1.33.4-1.87-2.67-2.27-2.53-.4-4,0-4,1.07M1072.8,604.8c-.53,1.2-.53,2.53-.27,2.8,1.07,1.07,3.47-1.07,3.47-3.07,0-2.53-2.13-2.4-3.2.27M766.66,605.07c0,1.6,2.53,3.47,3.47,2.53.27-.27-.27-1.33-1.47-2.27-1.2-1.07-2-1.07-2-.27M790.66,605.33c0,.67.67,1.33,1.33,1.33.8,0,1.33-.67,1.33-1.33,0-.8-.53-1.33-1.33-1.33-.74,0-1.33.6-1.33,1.33M1050.66,605.87c0,1.2.93,2.13,2.13,2.13s1.87-.67,1.6-1.6c-.8-2.4-3.73-2.8-3.73-.53M774.66,606.67c0,.67.67,1.33,1.33,1.33.8,0,1.33-.67,1.33-1.33,0-.8-.53-1.33-1.33-1.33-.74,0-1.33.6-1.33,1.33M821.33,608.13c0,.67.67.93,1.33.53.8-.4,1.33-1.07,1.33-1.47,0-.27-.53-.53-1.33-.53-.67,0-1.33.67-1.33,1.47M1068,608c0,.67.67,1.33,1.33,1.33.8,0,1.33-.67,1.33-1.33,0-.8-.53-1.33-1.33-1.33-.74,0-1.33.6-1.33,1.33M956,609.33c0,.67.67,1.33,1.33,1.33.8,0,1.33-.67,1.33-1.33,0-.8-.53-1.33-1.33-1.33-.74,0-1.33.6-1.33,1.33M1010.66,609.33c0,.67.67,1.33,1.47,1.33.67,0,.93-.67.53-1.33-.4-.8-1.07-1.33-1.47-1.33-.27,0-.53.53-.53,1.33M1064,610.67c0,.67.67,1.33,1.33,1.33.8,0,1.33-.67,1.33-1.33,0-.8-.53-1.33-1.33-1.33-.74,0-1.33.6-1.33,1.33M792,614c0,2.4,1.6,2.53,3.73.4,1.2-1.2,1.6-1.2,1.6,0,0,.93.67,1.6,1.33,1.6.8,0,1.33-.93,1.33-2,0-1.33-1.33-2-4-2-2.67,0-4,.67-4,2M804,613.47c0,.67.67.93,1.33.53.8-.4,1.33-1.07,1.33-1.47,0-.27-.53-.53-1.33-.53-.67,0-1.33.67-1.33,1.47M998,613.2c-2.93.93-3.47,4.53-.93,7.07,1.2,1.2,1.6,1.07,1.6-1.33,0-1.47.93-3.33,2.13-4,2.8-1.6.8-2.8-2.8-1.73M1056.66,613.47c-1.33,2,.4,3.33,2.13,1.6.93-.93.93-1.73.13-2.27-.8-.4-1.87-.13-2.27.67"/>
  <path d="M784.4,614.26c-4.67,1.87.27,4.27,22.67,10.8,12.13,3.6,12.93,3.73,12.93,1.47,0-1.47.93-2.53,2-2.53s2-.8,2-1.87.8-2.27,1.73-2.53c1.2-.53,1.2-.8-.13-.8-1.07-.13-2.93,1.2-4.27,2.8-1.87,2.4-2.8,2.67-4.13,1.47-.8-.8-2.4-1.2-3.33-.8-1.07.4-3.47.27-5.33-.13-2.67-.67-3.07-1.33-2-2.67.8-.93,1.07-2.13.53-2.53-1.47-1.6-3.07-1.07-3.07.93,0,3.2-2.4,3.73-5.87,1.47-1.87-1.2-3.87-1.87-4.53-1.47s-2.13-.53-3.33-2c-2.27-2.53-3.07-2.8-5.87-1.6M834.66,616c0,.67.67,1.33,1.33,1.33.8,0,1.33-.67,1.33-1.33,0-.8-.53-1.33-1.33-1.33-.74,0-1.33.6-1.33,1.33M973.33,616c0,.67.93,1.33,2,1.33s2-.67,2-1.33c0-.8-.93-1.33-2-1.33s-2,.53-2,1.33M1004,614.66c-.13.4-.4,2.27-.67,4.13-.4,2.93,0,3.47,2.13,2.93,2.53-.67,3.6-3.07,1.33-3.07-.67,0-1.6-1.07-1.87-2.4-.4-1.2-.8-2-.93-1.6M830,617.33c-.4.67-.13,1.33.53,1.33.8,0,1.47-.67,1.47-1.33,0-.8-.27-1.33-.53-1.33-.4,0-1.07.53-1.47,1.33M854.66,617.33c-1.2.8-1.33,1.33-.4,1.33.8,0,2-.67,2.4-1.33,1.07-1.6.53-1.6-2,0M1016.8,618c-.4,1.2,0,2,1.2,2,2.13,0,2.67-2.13.8-3.2-.67-.4-1.47.13-2,1.2M980.66,618.67c.4.67,1.6,1.33,2.67,1.33.93,0,3.73,1.6,6,3.47,2.27,2,4.53,3.2,4.93,2.67,1.07-1.07-3.07-4.27-8.8-6.8-5.33-2.4-5.87-2.4-4.8-.67M1028,618.67c0,.67.67,1.33,1.33,1.33.8,0,1.33-.67,1.33-1.33,0-.8-.53-1.33-1.33-1.33-.74,0-1.33.6-1.33,1.33M1047.06,618.93c-1.73.8-3.07,2-3.07,2.67s1.87.27,4-.93c6-3.07,5.07-4.67-.93-1.73M836.66,619.87c-.4.67-.13,1.6.67,2.13,1.6.93,4-.27,4-2.13,0-1.6-3.6-1.6-4.67,0M1012,620.13c0,.67.67.93,1.33.53.8-.4,1.33-1.07,1.33-1.47,0-.27-.53-.53-1.33-.53-.67,0-1.33.67-1.33,1.47M860.4,621.6c.27.93.93,1.73,1.6,1.73s1.33-.8,1.73-1.73c.27-.8-.53-1.6-1.73-1.6s-2,.8-1.6,1.6M1039.33,622.67c-.4.67-.13,1.33.53,1.33.8,0,1.47-.67,1.47-1.33,0-.8-.27-1.33-.53-1.33-.4,0-1.07.53-1.47,1.33M869.33,623.87c0,.67.67,1.73,1.33,2.13.8.4,1.33.27,1.33-.53,0-.67-.53-1.73-1.33-2.13-.67-.4-1.33-.27-1.33.53M907.33,624c-.4.67.13,1.33,1.2,1.33,1.2,0,2.13-.67,2.13-1.33,0-.8-.53-1.33-1.2-1.33-.8,0-1.73.53-2.13,1.33M998.66,623.73c0,.8.67,1.87,1.33,2.27.8.53,1.07,2.8.53,5.33-.8,4.67,1.07,7.2,3.87,4.93.93-.67,5.47-2,10-2.93,4.67-.93,8.8-2.53,9.2-3.6,1.07-2.53-.67-3.87-2.53-2-.93.93-2.67,1.6-3.87,1.6-1.33,0-2.53.8-2.93,1.6-.4,1.2-1.47.8-3.47-1.33-1.6-1.6-2.67-3.47-2.27-4.13s-.53-1.2-2.27-1.07c-1.6,0-4-.4-5.2-.93-1.47-.67-2.4-.53-2.4.27M1004,632c0,.67-.27,1.33-.53,1.33-.4,0-1.07-.67-1.47-1.33-.4-.8-.13-1.33.53-1.33.8,0,1.47.53,1.47,1.33"/>
  <path d="M865.86,635.06c1.2-1.2.93-3.07-.4-3.07-.8,0-1.6.53-2.13,1.2h0c-.8,1.47,1.2,3.07,2.53,1.87Z"/>
  <path d="M870.8,640c-.67,0-1.6-1.07-1.87-2.4-.53-1.87-.67-1.87-.8.4-.13,2-.4,2.27-1.33.8-.93-1.33-1.33-1.33-2.13-.13-.53.93-.13,2.13.8,2.8,2.53,1.6,6.53,1.47,6.53-.13,0-.8-.53-1.33-1.2-1.33Z"/>
  <path d="M876.4,640.93h0c-2.93,1.07-1.87,2.8,1.6,2.53,1.87,0,3.33-.53,3.33-.93,0-1.33-3.07-2.27-4.93-1.6Z"/>
  <path d="M976.53,634.66c1.2,0,2.13-.67,2.13-1.33,0-.8-.53-1.33-1.2-1.33-.8,0-1.73.53-2.13,1.33-.4.67.13,1.33,1.2,1.33Z"/>
  <path d="M857.06,634.66c-.67,0-1.07.53-1.07,1.33,0,.67-.67,1.33-1.47,1.33s-1.07-1.2-.53-2.67c.53-1.6.27-2.67-.67-2.67-.8,0-1.07.53-.67,1.33,1.2,2-3.6,1.47-6.53-.67-1.33-.93-2-2.4-1.47-3.2.4-.8-.13-1.47-1.2-1.47-1.2,0-2.13,1.2-2.13,2.67,0,2.93-3.47,2.27-6.27-1.2-1.47-1.73-1.87-1.87-2.93-.27-.93,1.47-1.47,1.33-2.67-.93-1.73-3.33-6.8-3.33-6.8-.13,0,1.6,2,2.8,6.8,3.87,3.73.93,12.27,3.33,18.93,5.47,6.53,2.13,12.27,3.6,12.53,3.33.8-.8-2.67-6.13-3.87-6.13Z"/>
  <path d="M855.33,628c.53.8,1.47,1.07,2.13.67,1.87-1.2,1.47-2-.93-2-1.07,0-1.6.67-1.2,1.33h0Z"/>
  <path d="M970.8,628.53c1.6-.93,1.47-1.47-.67-2.27-1.33-.53-1.73-.13-1.2,1.07.4,1.07,1.2,1.6,1.87,1.2Z"/>
  <path d="M915.33,640h0c-.4.67.4,1.87,1.87,2.53,3.07,1.73,4.13,1.87,4.13.4,0-1.73-5.2-4.27-6-2.93Z"/>
  <path d="M912,629.33c-.67,0-1.33.93-1.33,2s.67,2,1.33,2c.8,0,1.33-.93,1.33-2s-.53-2-1.33-2Z"/>
  <path d="M980,638.66c-.67,0-1.33.67-1.33,1.6,0,.8-.4,1.2-.8.67-1.07-1.07-8.53,1.73-8.53,3.2,0,1.73,4.13,1.47,8.4-.53,3.47-1.6,4.93-4.93,2.27-4.93Z"/>
  <path d="M994,636.8c-2.93,1.87-3.33,2-4.13.13-.4-1.2-.4-2.8.13-3.6.4-.67-.13-1.33-1.2-1.33-1.2,0-2.13.8-2.13,1.87s-.93,2.8-2,4c-1.47,1.33-1.6,2.27-.53,2.93,1.73,1.07,15.87-2.13,15.87-3.6,0-2.27-2.8-2.53-6-.4Z"/>
  <path d="M1013.33,623.46c0,1.73,2.4,5.2,3.2,4.53.27-.4-.27-1.87-1.33-3.2-1.07-1.47-1.87-2.13-1.87-1.33Z"/>
  <path d="M1034.13,624c-1.2,0-2.13.53-2.13,1.33,0,.67.53,1.33,1.2,1.33.8,0,1.73-.67,2.13-1.33.4-.8-.13-1.33-1.2-1.33Z"/>
  <path d="M971.33,636c.4-.8.27-1.33-.53-1.33-.67,0-1.73.53-2.13,1.33-.4.67-.27,1.33.53,1.33.67,0,1.73-.67,2.13-1.33Z"/>
  <path d="M936.66,641.33c-1.87,0-2.53-1.47-2.13-5.07.4-2.53-.93-1.87-1.87.93-.8,2.8,2.93,8.53,4.93,7.33,1.73-1.2,1.2-3.2-.93-3.2Z"/>
  <path d="M928.26,638.66c-.67,0-2.4-1.2-4-2.67-1.87-1.87-3.07-2.13-3.73-1.2h0c-.53.93.53,2.67,2.27,4,3.47,2.67,6.53,3.33,6.53,1.2,0-.8-.53-1.33-1.07-1.33Z"/>
  <path d="M942.66,636c-2.53-1.6-4-1.6-4-.13s4.13,3.2,5.2,2.13c.4-.4-.13-1.33-1.2-2Z"/>
  <path d="M884.4,642.26c-2.4.93-2.13,3.07.27,3.07,1.07,0,2-.93,2-2s-.13-2-.27-1.87c-.27,0-1.2.4-2,.8M948.53,642.93q.8,2.8-3.87,1.07c-2.67-1.07-4-.93-5.47.67-1.07,1.07-2.8,1.6-3.87,1.2-1.33-.53-2,0-2,1.47,0,1.87,1.47,2.13,13.33,1.47,15.6-.93,20-1.73,20-4.13,0-2-4.8-2-7.87-.13-1.07.67-2.13.4-2.8-.67-.93-1.33-1.47-1.33-3.07,0-1.73,1.33-2.4,1.2-3.6-.8-1.33-2.13-1.47-2.13-.8-.13M922.66,643.86c0,1.87,3.87,5.47,6,5.47s4-2.4,2.8-3.6c-.4-.53-1.87-.93-3.2-1.07-1.2,0-3.07-.53-4-1.2-.8-.53-1.6-.4-1.6.4M890.66,645.33c0,.67.67,1.33,1.33,1.33.8,0,1.33-.67,1.33-1.33,0-.8-.53-1.33-1.33-1.33-.74,0-1.33.6-1.33,1.33M896,646.66c0,.67.67,1.33,1.33,1.33.8,0,1.33-.67,1.33-1.33,0-.8-.53-1.33-1.33-1.33-.74,0-1.33.6-1.33,1.33M917.33,648c0,.67.8,1.33,1.87,1.33s2.4-.67,2.8-1.33c.4-.8-.4-1.33-1.87-1.33-1.6,0-2.8.53-2.8,1.33"/>
</svg>